<?xml version="1.0" encoding="UTF-8"?>
<svg id="Layer_1" xmlns="http://www.w3.org/2000/svg" version="1.1" xmlns:xlink="http://www.w3.org/1999/xlink" viewBox="0 0 4063 4128">
  <!-- Generator: Adobe Illustrator 29.5.1, SVG Export Plug-In . SVG Version: 2.1.0 Build 141)  -->
  <defs>
    <style>
      .st0 {
        fill: #381035;
        fill-opacity: .01;
      }

      .st1, .st2, .st3, .st4, .st5, .st6, .st7, .st8, .st9, .st10, .st11, .st12 {
        fill: #ea7f04;
      }

      .st1, .st13, .st14 {
        fill-opacity: .98;
      }

      .st15, .st2, .st16 {
        fill-opacity: .95;
      }

      .st15, .st17, .st18, .st19, .st20, .st21, .st22, .st23, .st24, .st25, .st26, .st27, .st13, .st28, .st29, .st30, .st31, .st32, .st33, .st34 {
        fill: #ca3300;
      }

      .st35 {
        fill-opacity: .89;
      }

      .st35, .st36, .st37, .st38, .st39, .st16, .st40, .st41, .st42, .st43, .st44, .st45, .st46, .st14 {
        fill: #723e70;
      }

      .st17, .st39 {
        fill-opacity: .99;
      }

      .st3 {
        fill-opacity: .87;
      }

      .st37, .st29 {
        fill-opacity: .94;
      }

      .st38, .st6, .st34 {
        fill-opacity: .98;
      }

      .st19 {
        fill-opacity: .89;
      }

      .st20 {
        fill-opacity: .42;
      }

      .st4 {
        fill-opacity: .92;
      }

      .st47 {
        fill: url(#linear-gradient1);
      }

      .st21 {
        fill-opacity: .95;
      }

      .st22, .st40 {
        fill-opacity: .9;
      }

      .st23 {
        fill-opacity: .97;
      }

      .st24, .st5, .st44 {
        fill-opacity: .95;
      }

      .st25 {
        fill-opacity: .85;
      }

      .st26, .st41 {
        fill-opacity: .96;
      }

      .st7, .st43 {
        fill-opacity: .98;
      }

      .st42, .st27, .st9 {
        fill-opacity: .97;
      }

      .st8, .st33 {
        fill-opacity: .96;
      }

      .st28 {
        fill-opacity: .91;
      }

      .st30 {
        fill-opacity: .88;
      }

      .st31 {
        fill-opacity: .83;
      }

      .st45, .st12 {
        fill-opacity: .96;
      }

      .st32 {
        fill-opacity: .87;
      }

      .st11 {
        fill-opacity: .9;
      }

      .st48 {
        fill: url(#linear-gradient);
      }

      .st46 {
        fill-opacity: .24;
      }
    </style>
    <linearGradient id="linear-gradient" x1="1168.41" y1="1861.48" x2="1192.38" y2="1909.8" gradientTransform="translate(0 4128) scale(1 -1)" gradientUnits="userSpaceOnUse">
      <stop offset="0" stop-color="#dd5000" stop-opacity=".95"/>
      <stop offset="1" stop-color="#de5000"/>
    </linearGradient>
    <linearGradient id="linear-gradient1" x1="1161.6" y1="1828.7" x2="1160.89" y2="1862.7" gradientTransform="translate(0 4128) scale(1 -1)" gradientUnits="userSpaceOnUse">
      <stop offset="0" stop-color="#dc5000" stop-opacity=".88"/>
      <stop offset="1" stop-color="#de5000"/>
    </linearGradient>
  </defs>
  <path class="st36" d="M3408.61,1761.25l105-.09c75.41-.08,145.17,2,203.43,57.87,37.68,36.14,56.45,86.4,57.51,138.55,1.11,54.85-19.63,102.36-56.59,141.51-60.88,57.2-122.73,59.73-201.27,59.71l-108.08-.15v-397.4ZM3496.08,2079.92c54.93.35,110.81,7.33,154.42-33.77,23.71-26.86,34.33-56.69,32.6-92.76-1.51-31.55-13.56-62.22-37.01-83.61-40.89-37.29-99.24-30.04-150.01-29.64v239.78Z"/>
  <path class="st36" d="M1636.18,1761.27c60.15.12,198.18-7.41,248.3,10.33,31.36,11.11,56.9,31.54,71.3,62.55,15.15,32.64,16.07,73.92,3.82,107.65-13.91,38.28-41.72,58.64-77,75.07l96.88,141.78h-40.23s-61.84,0-61.84,0l-85.27-127.29h-68.54s.01,127.29.01,127.29h-87.43v-397.38ZM1723.58,1953.78c41.79.27,105.73,9.04,140.3-16.33,11.65-15.2,16.65-28.41,14.6-47.88-1.52-14.44-6.9-26.82-18.54-35.69-28.32-21.59-101.08-13.98-136.34-13.76l-.02,113.66Z"/>
  <path class="st36" d="M2977.29,1761.27h80.75l185.95,244.76v-244.76h86.46l-.18,395.56-3.23,1.82h-71.1l-192.45-253v253s-86.2-.01-86.2-.01v-397.37Z"/>
  <path class="st36" d="M2202.94,1761.29l112.48-.22c29.89-.04,60.82-1.65,90.31,3.91,17.63,3.21,34.56,9.55,50.02,18.74,28.91,17.34,48.88,44.56,57.2,77.59,9.14,36.3,5.46,77.14-13.83,109.46-22.83,38.24-59.33,54.72-100.49,65.04-35.75,5.08-71.9,3.92-107.91,3.82v119.02h-87.77v-397.36ZM2412,1943.58c13.31-16.53,18.56-30.67,16.15-52.25-1.62-14.52-7.37-27.24-18.92-36.3-28.72-22.55-84.34-15.26-118.51-14.92v121.26c39.44.36,88.27,8.15,121.28-17.79Z"/>
  <path class="st36" d="M2817.65,1761.27h87.68v80l.13,98.06c.12,63.05,1.98,129.52-44.77,177.93-34.02,35.23-82.44,47.6-129.75,47.68-46.46.08-94.36-11.76-127.93-46.26-19.16-19.7-30.93-44.37-37.34-71.09-10.32-42.98-6.76-89.94-6.73-133.92l.13-152.4h87.38l-.06,154.51c-.08,32.27-3.1,67.84,2.8,99.58,3.09,16.65,9.56,33.09,21.15,45.54,15.39,16.54,37.12,22.64,58.95,23,23.32.38,47.2-4.65,64.15-22.08,11.36-11.68,18.01-27.23,21.26-43.14,6.3-30.82,2.94-65.43,2.93-96.84l.02-160.57Z"/>
  <path class="st36" d="M1256.76,1761.27h329.4v80.56h-120.96v316.82s-87.23,0-87.23,0v-316.82h-121.2v-80.56Z"/>
  <path class="st36" d="M2033.46,1761.27h87.43v397.38s-87.43,0-87.43,0v-397.38Z"/>
  <path class="st18" d="M1257.58,2213.75c56.21-4.25,116.52-.65,173.07-.61l342.91.03,1084.85-.03,644.53.04,175.55-.12c30.12-.11,63.95-3.27,93.66,1.04l3.2,8.53c-22.94,1.99-46.81.76-69.87.75l-125.89-.09h-394.62l-1254.89.04h-449.71c-66.31-.01-133.39,2.22-199.6.55-7.03-.18-13.9-.11-20.48-2.87l-2.71-7.26Z"/>
  <path class="st18" d="M880.88,1974.03c35.82,1.7,71.77,2.16,107.62,3.11,2.23,21.17,2.78,202.51-1.41,214.03-5.1,2.87-6.52,1.93-12.14,1.1-1.51-3.95-2.09-8.44-6.29-10.33-7.48-3.38-63.02-1.62-71.76,1.34-2.12,4.73-2.96,7.82-7.61,10.48-3.34-.06-5.09-.06-8.06-1.84-2.16-1.3-1.99-.89-2.45-3.15-2.03-9.93-4.35-201.3-.82-210.17.67-1.68,1.94-3.05,2.92-4.57ZM885.97,1984.92c.72,49.09,1.01,98.18.85,147.27l40.96-.23c.74-48.92,2.16-98.15,1.76-147.06l-43.56.02ZM937.46,2132.61c13.84.66,27.41.81,41.25.22.04-30.1-.07-60.22.35-90.32.25-18.07,1.77-36.48.82-54.51-13.9-1.36-27.52-2.27-41.48-2.28-.04,48.92.66,97.99-.93,146.89ZM979.74,2169.15c.44-8.81,1.16-17.7,1.12-26.52-31.09-.03-62.68-1.27-93.71.3-.34,7.89-1.39,15.89,1.07,23.49,18.13,8.06,68.72.6,91.52,2.73Z"/>
  <path class="st36" d="M1088.4,1839.18c19.92-3.19,44.85,1.58,65.35,1.42,13.49-.1,27.15-2.65,40.58-1.86,4.2.24,7.17.9,10.89,3.07,1.78,4.77,2.16,4.94-.07,9.68-13.37,28.41,6.33,88.06-8.14,109.66-3.58,1.48-5.82,3.14-9.49.53-5.2-3.69-5.25-8.71-6.51-14.45.45-3.47-.18-3.48-1.81-6.38-23.67-6.22-58.34,1.81-85.21-2.42-1.78,7.76-3.19,15.34-7.03,22.38-4.15.87-7.49.17-11.58-.59-3.63-.66-3.72-4.7-3.9-7.98-.99-18.12,4.36-83.44.18-95.49-.92-2.67-4.83-6.86-6.53-9.35l.79-3.74c5.91-4.13,15.46-3.79,22.48-4.48ZM1185.82,1904.28c-1.74-3.39-1.49-4.92-5.24-6.22-12.12-4.22-80.75-3.74-94.37-.58,8.51,9.22,25.62,7.71,37.66,8.11,20.6.67,41.39-.11,61.95-1.31Z"/>
  <path class="st0" d="M1086.21,1897.48c13.62-3.16,82.25-3.64,94.37.58,3.75,1.3,3.5,2.83,5.24,6.22-20.56,1.2-41.35,1.98-61.95,1.31-12.04-.4-29.15,1.11-37.66-8.11Z"/>
  <path class="st38" d="M580.42,1931.28c6.52-9.41,16.33-20.07,13.99-32.45-1.3-6.86-7.67-11.36-12.61-15.63l-.74-4.18,2.92-3.95c5.76.15,9.71,4.12,14.14,7.47l3.21-.87c5.83-20.51-10.62-43.98,8.73-61.63,5.39-1.29,5.19-1.2,10.1,1.46,3.39,5.37,4.72,10.03,3.38,16.3-3.26,15.24-14.52,24-12.28,41.28,5.12-4.65,8.36-11,14.77-13.42,3.71,3.74,2.8,3.01,2.98,7.84-9.96,13.38-18.91,24.46-27.42,39.23,13.25-6.42,24.66-11.31,39.23-5.62,8.62,3.37,15.68,9.69,19.43,18.35,3.29,7.63,3.91,16.07.09,23.65-3.41,6.77-10.05,10.78-17.12,12.5-5.5,1.33-11.55,1.46-16.61-1.53-5.42-3.21-8.42-9.28-9.27-15.4-.9-6.4.65-11.13,4.31-16.38,4.11-1.82,5.98-2.68,10.36-.12,1.35.8,2.76,2.61,3.78,3.82-2.03,7.43-7.94,6.88-7.11,14.99,3.39,4.18,3.44,3.99,8.72,4.98,6.54-2.11,11.69-5.21,14.32-12.08,1.83-4.76,1.26-10.13-1.53-14.39-3.9-5.88-12.03-10.85-18.98-11.61-12.7-1.39-24.3,6.22-33.52,14.27-9.88,8.64-18.37,19.08-26.96,29.01,8.1,4.48,15.55,8.57,24.55,10.98-4.32.4-8.21,1.37-12.41,2.4-3.85-1.59-7.73-3.08-11.5-4.84-11.01-5.14-24.45-1.21-36.39-4.39-25.52-6.81-47.34-31.47-75.7-20.69-12.88,4.9-28.41,22.64-42.45,19.62l-1.57-2.9c5.16-14.37,22.4-15.28,29.31-26.88-8-3.79-20.7-1.75-28.74,1.46-11.46,4.58-27.56,28.76-35.25,25.64-1.38-5.35-.78-9.17,1.77-14.01,5.21-9.89,17.05-15.82,27.27-18.6,24.3-6.61,52.66,1.31,76.56,6.28-19.05-11.25-40.73-26-63.83-22.43-6.94,1.07-15.98,4.02-22.9,2.77-5.01-.91-7.89-1.4-9.29-6.48,3.6-5.18,7.86-7.7,13.99-8.59,11.29-1.63,24.24,2.13,35.18,4.88-8.65-10.41-15.37-17.43-12.63-32.36.35-1.94.78-2.47,1.63-3.98,3.28.61,2.26-.25,3.86,2.06,15.27,22.04,1,23.23,30.54,41.83-4.38-13.66-8.65-25.46-2.12-39.4,3.79-8.19,10.87-14.33,19.43-16.84,5.23-1.51,11.99-1.89,16.95.79,3.64,1.98,6.18,5.3,6.81,9.47.69,4.56-2.34,12.39-5.26,15.97-3.13,3.84-4.53,3.34-9.05,3.4-4.88-3.21-6.65-5.36-9.32-10.59l.24-3.84c3.27,1.11,6.57,2.14,9.89,3.1l2.02-1.95c-1.89-4.97-1.95-5.33-6.31-8.22-5.48.28-9.1.17-13.26,4.26-6.13,6-7.35,17.8-6.68,25.9,1.29,15.49,12.37,24.61,22.69,34.69-.29-11.58-1.58-20.4,4.34-30.62l2.84-1.3c10.63,9.1,4.98,34.22,13.19,41.55.95-7.97.98-19.13,7.83-24.35.48-.36,1.04-.6,1.55-.91,9.19,13.69.43,40.55,22.62,45.01,7,1.4,15.95-1.41,21.41-5.86,5.74-4.67,7.74-9.89,8.32-17.31-1.54-5.09-3.07-9.32-8-12.03-4.65-2.55-7.44-1.66-12.21-.63-2.86,2.39-4.47,3.39-6,6.9,4.27,5.35,12.24,2.65,13.98,8.74-2.37,4.54-2.1,4.46-6.85,6.16-5.22-1.09-9.54-2.26-12.92-7-3.47-4.86-2.95-7.54-2.28-13.02,4.71-7.13,11.58-11.52,20.03-12.85,4.92-.78,8.4.24,12.46,3.1,6.06,4.27,9.02,13.3,11.35,20.02Z"/>
  <path class="st18" d="M604.8,1994.18c14.84.5,30.39,3.93,42.17,13.58,15.52,12.72,17.98,30.48,20.09,49.24-6.97,3.44-15.14,6.81-21.09,11.97-10.64,9.23-10.07,23.89-11.14,36.9-10.72-1.64-21.03-2.72-31.87-3.04-14.16-.35-26.11,1.07-39.74,4.64-2.69-50.21-22.18-30.72-25.22-57.98-1.23-11.02,3.36-20.85,10.28-29.07,14.98-17.83,34.42-24.07,56.52-26.24Z"/>
  <path class="st18" d="M1058.01,1975.82c14.62-.81,29.14-.64,43.78-.39,9.52,18.77,20.13,39.76,28.32,59.02,2.27,5.35,2.76,7.83.82,13.26-11.22,5.88-26.1-3.03-38.48,1.93-12.94,18.65,17.92,24.76,17.31,42.08-.45,13.02-10.67,22.53-19.33,30.79,2.67.55,5.32,1.18,7.96,1.89,6.75,1.87,13.05,4.14,16.63,10.6-3.54,3.36-4.88,2.89-9.5,3.74-17.3-.09-37.08,2.98-53.94-.87l-.87-5.35c2.28-4.33,4.6-5.37,8.79-7.44,3.9-1.93,4.87-1.98,7.43-5.68-4.3-8.23-12.02-20.1-12.59-29.28-.82-12.92,13.64-18.67,19.21-27.99,2.96-4.95,1.93-6.81.5-11.9-14.51-4.16-34.18-1.57-49.69-2.87,8.26-23.92,21.17-49.54,33.65-71.54Z"/>
  <path class="st10" d="M2153.32,2269.65h100.39v25.87s-71.46,0-71.46,0v27.14h63.06v25.95s-59.14-.01-59.14-.01l-2.49.54c-3.26,7.73-1.57,19.47-1.43,27.87h72.5l.02,25.82h-101.45v-133.18Z"/>
  <path class="st10" d="M3560.91,2269.66h100.36s.01,25.86.01,25.86h-71.53v27.14h62.82v25.94s-56.28,0-56.28,0c-1.56.01-3.61.74-5.15,1.1-3.2,8.23-1.68,18.56-1.38,27.31h72.47v25.82s-101.32,0-101.32,0v-133.17Z"/>
  <path class="st17" d="M1137.49,1995.95c5.54-11.19,10.11-18.06,22.11-22.41,10.29-3.79,21.67-3.14,31.48,1.8,10.69,5.5,18.43,16.02,21.54,27.7,3.12,11.68-4.82,23.56-1.72,34.12l8.65,1.6c.26,2.61,1.06,3.8-.74,6.01-2.8,3.45-6.5,4.72-10.32,6.68-15.45,7.9-20.93,20.11-28.91,35.24,7.45-6.3,14.16-12.58,23.28-16.27l4.76.52c1.27,2.43,2.49,3.28,1.64,6.19-9.12,31.05-40.03.97-38.01,65.77,5.25-11.42,9.27-22.6,21.78-27.6,5.09-2.04,9.46-2.78,14.81-1.32,2.17,2.48,3.64,2.95,3.57,6.53-.18,8.13-6.41,14.54-12.31,19.33-7.81,6.34-20.94,11.05-22.84,22.14-.89,5.2,1,9.62,3.94,13.76,6.93,9.73,22.74,8.84,22.65,22.91-3.9,3.31-3.78,2.92-8.91,2.59-4.53-2.8-7.8-5.56-11.63-9.31-18.99-18.58-38.99-9.23-62.41-13.39,7.79,5.69,15.7,11.27,23.38,17.12-4.54.87-9.35,1.28-13.45,3.5-4.12-1.41-2.78-1.28-6.53-1.52-5.91-.38-10.63.63-15.45-3.09.57-3.09.81-5.21.68-8.41-10.77-2.38-23.41,8.76-34.85,11.29l-1.9-1.86c1.18-5.12,3.97-9.31,6.49-13.87l-.93-2.83-8.03.14-4.47-1.37-1.63-5.06c-5.1-5.32-10.5-10.65-10.64-18.43l3.31-.64c9.87,3.19,15.58,10.16,22.5,17.52,12.45,1.85,24.92,3.48,37.36,5.43-.51-3.54-.79-6.95-1.02-10.51,3.11-4.31,5.38-7.32,10.7-8.69,16.35-4.23,35.15,10.75,47.62,19.64-2.09-5.76-4.33-11.44-6.51-17.17-6.92-18.18-38.31-21.54-42.67-42.45-.65-3.16.65-3.66,2.33-6.04,5.07-1.95,7.88-3.24,13.41-2.4,14.1,8.56,19.63,29.81,26.25,44.56-.86-14.32-2.52-28.69-3.8-42.99l-6.91-9.3c-2.2-2.92-4.53-5.76-6.11-9.1-4.29-9.02-8.2-21.66-5.09-31.5,3.96-4.03,4.75-4.25,10.25-5.58,10.57,6.09,12.04,18.06,15.36,29.19,9.78-9.03-.94-28.81,6.98-39.89,4.66.91,4.31,8.88,10.09,10.78,2.86-3.05,5.44-5.96,7.67-9.54,7.38-11.87,12.13-26.48,8.76-40.53-2.15-9-7.52-16.97-15.72-21.29-7.81-4.03-16.94-4.45-25.08-1.15-9.84,3.93-13.18,10.28-16.99,19.84l-8.13.77.36-7.16Z"/>
  <path class="st36" d="M649.56,1795.17c20.88-1.85,48.45-5.42,69.05-1.6,4.09.76,9.27,1.77,11.08,6.09,4.51,10.76,3.56,78.92-1.2,90.09-1.39,3.26-3.76,2.91-6.84,3.87-19.29.12-61.68,7.34-76.8-3.66-7.82-18.2-5.22-63.95-2.28-84.43.82-5.69,2.45-7.32,7-10.36ZM651.64,1883.67c22.03,1.16,43.73.1,65.74.09,3.89-24.86,2.14-52.83.72-77.86-21.62-.36-42.84.58-64.42,1.12-6.59,11.07-1.9,60.84-2.04,76.65Z"/>
  <path class="st44" d="M663.89,1873.55c-.44-.96-.98-1.88-1.32-2.87-4.37-12.67-3.27-41,3.35-52.66,13.99-7.39,19.33,10.73,29.78,9.85,5.38-.46,6.12-5.89,12.99-4.57l1.39,3.57c-3.64,7.56-13.81,11.7-20.91,15.16-5.27-3.31-5.56-12.8-8.45-18.76l-2.77-.2c-9.49,6.84-8.78,14.51-10.61,24.87l-2.57,2.42c-.14,7.61.21,15.67-.87,23.19Z"/>
  <path class="st36" d="M663.89,1873.55c1.08-7.52.73-15.58.87-23.19l2.57-2.42c.91,1,1.8,2.03,2.74,3.01,11.48,11.95,30.06-.32,39.74,14.36l-.65,3.33c-14.19,5.21-30.35,4.81-45.27,4.91Z"/>
  <path class="st18" d="M664.31,2070.26c4.38,1.06,9.28,2.23,12.95,5,4.22,3.18,7.14,7.72,7.42,13.12.58,11.01-4.83,16.9-11.79,24.42.47,15.06,3.51,35.71-2.15,49.85-14.36,12.23-2.32,15.15-7.57,29.48-4.7,1.54-4.71.99-9.21-.16-4.95-5.06-6.84-13.9-9.12-20.55-30.19-1.87-60.62-1.2-90.83-.43-2.18,6.78-5.33,18.91-11.95,22.32-7.16-6.76-5.24-23.82-12.05-33.36-3.02-4.24-2.5-5.7-2.96-10.79l-.12-35.97c-2.95-3.28-5.94-6.57-8.33-10.31-3.66-5.72-5.08-14.42-2.84-20.99,1.03-3.02,2.94-5.33,5.74-6.67,6.11-2.91,16.12-2.49,22.13.83,19.38,10.69,3.14,44.8,9.92,61.52,1.04,2.57,2.79,4.95,5.36,6.01,9.85,4.06,68.49,4.8,78.66.03,20.78-9.77.96-41.02,8.95-58.84,3.4-7.58,8.52-10.85,15.93-13.8.62-.24,1.25-.47,1.87-.71Z"/>
  <path class="st1" d="M673.72,2203.74c18.31-3.12,36.86,4.02,48.55,18.67,11.69,14.66,14.72,34.57,7.92,52.13-6.79,17.55-22.36,30.04-40.74,32.68-27.93,4.02-53.85-15.53-58.15-43.85-4.31-28.32,14.6-54.9,42.42-59.63ZM693.05,2296.13c22.16-5.99,35.55-28.86,30.16-51.51-5.4-22.64-27.6-36.75-50.01-31.78-14.94,3.32-26.95,14.59-31.37,29.47-4.42,14.88-.58,31.02,10.05,42.19,10.63,11.17,26.38,15.62,41.17,11.63Z"/>
  <path class="st1" d="M702.58,2232.39l3.82,2.26-.22,4.53c-4.64,8-10.29,15.07-17.86,20.42-4.37,3.09-4.81,3.2-9.8,2.38-.54-.73-1.09-1.45-1.61-2.19-3.44-4.93-6.85-9.19-5.92-15.26,5.32-1.09,8.19,3.73,13.93,4.69,6.28-5.23,11.93-11.01,17.66-16.83Z"/>
  <path class="st10" d="M2470.04,2268.35c23.27-2.1,40.3,3.6,59.77,15.8l-15.17,22.22c-6.95-4.5-14.95-8.85-22.84-11.25-7.29-2.21-18.16-3.16-24.69,1.56-3.84,2.77-4.96,5.83-5.64,10.33,5.98,13.61,42.34,18.21,55.61,26.84,8.04,5.22,14.54,12.47,16.48,22.2,1.92,9.62-.66,21.9-6.03,30.03-8.7,13.16-23.81,16.22-38.06,18.97-24.3-.58-41.5-7.09-61.34-21.12l17.4-20.89c12.23,9.11,24.59,16.32,40.21,15.8,7.1-.24,14.04-2.51,18.61-8.32,1.95-2.48,1.26-1.85.9-5.54-9.86-13.23-31.21-15.68-45.45-22.23-10.76-4.94-21.42-12.54-25.48-24.36-3.25-9.48-1.13-19.95,3.5-28.56,7.08-13.19,18.6-17.74,32.22-21.48Z"/>
  <path class="st36" d="M757.81,1878.37c2.83-4.27,3.24-4.79,8.53-5.78,21.87-4.13,77.24-.97,99.84,3-1.83,28.42-.55,58.35-4.45,86.39-34.32.1-69.94,2.26-104.1-.19.6-9.79-1.72-19.2,1.15-28.8l2.67.43c4.52,5.07,9.79,12.44,16.49,14.12,21.6-16.35,20.44,2.55,31.92-1.08,5.23-1.66,6.28-6.43,13.1-7.39,3.09,2.45,6.26,5.25,9.99,6.67,4.71,1.8,8.35.72,12.58-1.7,4.71-2.7,8.12-7.99,8.92-13.34.55-3.71.37-2.57-2.21-5.73-4.43.6-7.21.85-10.67,3.93-.83.73-1.62,1.5-2.43,2.25-5.74-.62-11.3-6.59-15.92-10.26-2.39,1.89-5.33,4.68-8.07,5.91-6.54,2.94-12-2.46-18.43-3.47-6.21-.97-11.37,4.38-16.23,7.65-5.27-4.8-10.82-9.34-16.24-13.97l-3.73.14c-4.14-9.03-1.84-28.2-2.67-38.78ZM850.11,1904.35c4.21-5.14,4.74-6.23,5.9-12.8l-2.01-2.16c-6.51,1.16-14.44,9.07-20,5.89-2.77-1.57-5.53-4.53-7.94-6.66-6.84-.56-8,4.12-13.77,5.74-7.4,2.08-9.58-6.9-14.99-8.06-6.42-1.36-10.46,10.93-17.19,7.35-5.05-2.68-9.58-8.76-14.62-11.94-1.07,8.06-2.33,18.61,2.73,25.64,1.61,2.24,4.11,2.26,6.58,2.96,7.51-1.31,19.87-10.65,25.43-6.5,2.51,1.87,4.89,5.52,6.88,8.01l3.67.57c4.37-3.59,8.25-6.9,13.49-9.17,5.05,1.18,7.05,4.55,10.1,8.44,4.84.75,6.26.73,10.55-2.41,1.54-1.13,3.79-3.48,5.19-4.9Z"/>
  <path class="st39" d="M976.26,1830.75c6.76-4.43,13.59-9.74,21.39-11.98,2.86,4.16,3.5,8.35,4.05,13.3,1.35,12.14-1.53,24.59-9.53,33.91-9.15,10.65-19.36,10.05-32.14,10.79-4.93,3.56-8.61,6.46-12.17,11.58l.81,3.3c6.55,1.77,13.13,3.28,19.71,4.92,15.95,3.97,21.61,10.06,30.14,24.29l4.26,18.31c-29.87,28.45-53.56-27.65-82.46-24.77-9.11.91-17.4,6.48-22.82,13.82-6.38,8.63-7.24,16.34-5.49,26.68,5.97-.31,9.61-22.69,18.42-26.04,8.89-3.4,18.59-2.25,26.88,1.93,1.98,2.77,3.64,3.89,3.6,7.52-.07,6.83-4.28,14.74-9.66,18.84-6.73,5.11-17.64,1.28-25.59,2.39-18.8,2.61-33.41,19.75-54.08,15.08l-.35-2.46c3.14-1.8,5.85-3.24,9.32-4.3,28.48-8.67,17.48-35.39,35.38-53.53,9.51-9.64,26.32-11.7,37.13-20.96,17.52-14.99,15.18-46.27,16.68-67.55,8.89,1.14,17.73,3.19,26.53,4.93ZM987.42,1930.6c-1.29-7.62-4.79-12.58-10.93-17.06-11.13-8.14-25.21-9.67-38.44-8.15,7.59,11.1,25.89,22.22,38.78,24.62,3.51.65,7.03.61,10.59.59Z"/>
  <path class="st10" d="M1871.78,2269.65h101.48v26.37s-72.38,0-72.38,0v28.66c11.07-.07,55.37-2.91,63.71,1.85v24.64s-63.7-.01-63.7-.01v51.67h-29.11s0-133.18,0-133.18Z"/>
  <path class="st18" d="M378.67,1975.68c12.9,1.02,26.28-.17,39.2-.76,6.35,17.55,21.25,46.21,18.07,64.88-9.5,11.81-21.23-.94-33.17,3.37-12.01,17.12,14.58,22.58,15.85,38.56.74,9.38-3.41,14.13-8.99,21.01l-1.71,2.08c3.11,6.42,9.29,5.44,13.57,11.56l-1.8,5.76c-12.91.64-27.67,1.88-40.43.08-4.91-.69-5.72-.84-8.46-4.72,2.61-6.01,9.45-6.23,12.87-12.44-1.63-2.55-3.21-4.53-5.45-6.55-4.43-4.02-7.36-6.18-9.34-12.16.21-16.7,12.09-16.39,19.8-27.67,3-4.38,2.37-7.63,1.56-12.63-10.82-3.48-25.44-2.09-36.84-2.2,4.65-17.9,10.93-55.57,25.29-68.17Z"/>
  <path class="st10" d="M817.72,2244.66c5.69,2.4,5.68,1.66,11.53-.61l2.18,1.62c-1.54,3.75-2.32,5.47-2.3,9.61,3.31.41,4.17.56,7.11,2.43,2.15,15.8-1.22,33.77-5.96,48.85-8.17,1.62-24.1,2.77-28.57,10.41-4.02,6.87-8.07,22.95-5.97,30.5l3.53.13c7.76-5.63,7.29-13.82,13.15-20.46,3.53-4.01,7.73-4.45,12.66-4.64,3.31,1.67,5.29,2.02,7.38,5.31,2.83,4.47,3.59,8.97,1.9,14.11-1.79,5.43-6.02,9.4-11.02,11.76-15.24,7.19-48.8,4.22-64.13-1.83-5.19-2.04-8.81-2.48-14.39-2.3-.66.02-1.32.07-1.98.1-1.17-.97-4.16-3.49-5.21-4.22-1.05-.74-2.2-1.32-3.28-2.02-9.71-6.29-10.38-20.13-12.26-30.64,4.42-7.33,7.98-14.2,16.72-16.52,11.79,6.1,9.92,31.6,16.36,43.71l2.21-.65c4.35-16.44,3.25-36.97,4.44-54.05,3.43-4.33,6.8-8.85,12.06-11.02,5.55-2.29,9.32-1.48,14.68.55,3.53,3.19,5.12,5.07,6.36,9.75,1.88,7.15,3.02,14.26,7.59,20.23,7.28-7.52-.96-38.98,4.62-51.05.88-1.91,8.08-5.74,10.59-9.06Z"/>
  <path class="st10" d="M451.31,2210.08c2.79-.61,4.23-.15,6.97.43,5.33,12.35-6.21,33.88-2.94,48.49,4.96,22.19,27.68,37.65,29.03,60.59.98,16.67-10.47,29.39-20.47,41.1-.96,5.87,3.06,9.36,6.08,14.29-6.64,4.01-18,2.81-25.78,3.12-2.79.22-5.93.64-8.76.41-4.48-.37-6.78-1.55-9.85-4.73.81-.85,4.11-4.24,4.64-5.14.64-1.07,1.23-2.25,1.33-3.49.16-2.07-17.72-27.4-19.6-36.97-3.71-18.9,8.33-31.88,17.42-46.82,15.53-25.49,10.33-41.49,3.88-68.53,5.15-3.48,12.05-2.62,18.04-2.75Z"/>
  <path class="st10" d="M599.98,2317.02c8.62-.45,16.55-.91,25.12.6,3.79,3.15,4.15,4.15,4.63,9.46.82,9.07-5.94,15.72-11.68,21.58-5.55,5.67-.25,43.8-1.78,54.06l-4.11,2.68-3.92-.95c-4.51-5.25-5.51-11.91-7.21-18.48-17.52-.04-35.28-.68-52.72,1.06-.54,3.5-.97,7.32-2.08,10.68-1.51,4.56-3.27,6.47-7.46,8.34l-5.2-2.65c-6.76-13.1,3.06-32.26-.11-46.09-1.79-7.79-10.42-14.32-11.25-22.21-.64-6.06.44-10.76,4.01-15.55,22.15-5.28,50.66-2.27,73.77-2.53Z"/>
  <path class="st33" d="M473.46,2069.28c-5.9-12.19-23.52-35.28-20.5-48.45,1.17-5.11,4.56-9.7,8.43-12.97,4.19.43,4.83.42,7.52,4.12,6.03,8.33,6.54,21.48,6.77,31.49,2.92-1.99,3.09-2.64,4.96-5.5,9.8-14.93,38.5-20.22,35.57-41.51-.88-6.43-3.8-9.4-8.71-13.11-4.76-1-10.17-1.32-14.47,1.59-4.64,3.13-5.12,4.72-6.57,9.82l.91,3.04c5.22.32,10.05-.04,15.26-.2,3.33-.1,2.25-.04,5.96,1.53-.31,4.62-2.78,8.37-6.74,11.1-4.72,3.24-6.86,2.61-12.12,1.89-5.59-3.78-9.56-7.8-10.42-15.09-.74-6.34,1.98-12.56,6.2-17.07,4.27-4.55,11.08-8.01,17.39-7.79,6.5.22,12,2.77,15.99,8,5.36,7,7.15,16.77,5.36,25.38-6.36,30.67-54.03,26.46-47.12,68.61l2.42-.33c6.4-10.54,11.74-28,24.66-31.95,5.11-1.56,7.25.04,11.53,2.39,2.11,4.91,3.32,7.18,1.1,12.62-7.79,19.09-34.24,13.48-40.7,42.07l1.43,3.91c6.55.72,14.38-6.61,18.74-4.23-3.15,8.81-7.71,10.21-15.67,14.05l-12.97,33.93c16.86-1.78,26.3-1.07,39.83,10.22,4.77,3.98,8.19,8.09,8.8,14.56-1.74,6.63-4.99,10.29-10.61,13.9-4.15,2.66-8.68,3.62-13.52,2.78-4.97-.87-7.44-3.36-10.33-7.26-1.15-5.61-1.58-6.65.35-11.94l3.81-1.56,3.79,1.73,2.72,10.07c4.43.05,6.44-.85,9.66-4.2,3.21-3.35,1.99-5.98,1.26-10-4.92-6.03-10.49-10.34-18.4-11.33-10.58-1.32-22.82,3.03-31.03,9.69-2.12,1.71-1.76,1.62-3.8,4.25-2.17-2.88-3.44-4.17-6.18-6.29,11.66-12.25,20.76-23.84,21.23-42.02.14-5.31-1.22-10.96-5-14.83-4.07-4.18-10.72-6.55-16.41-6.4.42,6.61,7.34,9.19,6.05,15.5-4.67.7-7.08.79-11.52-.91-3.11-3.8-4.83-5.85-4.58-11.23.27-5.8,3.88-9.2,7.66-12.88,4.72-1.47,6.54-2.37,11.19.47,7,4.28,12.69,14.85,17.25,21.64l1.66-.84c.17-9.1.61-22.91-6.33-29.92-8.91-9-25.64-2.94-33.57-11.35-.01-5.05.13-4.81,3.47-8.61,10.34-2.49,19.97,1.48,29.38,5.58l8.94,3.84Z"/>
  <path class="st10" d="M2979.68,2269.66h33.92s32,53.61,32,53.61l32.47-53.62h33.04s-30.34,47.38-30.34,47.38l-20.91,32.88v52.92h-28.96s0-52.59,0-52.59l-51.22-80.58Z"/>
  <path class="st36" d="M521.84,1767.94c11.12-.76,22.27-.36,33.41-.16.77,1.06,1.56,2.09,2.29,3.18,7.8,11.48,25.22,34.62,23.02,48.07-9.82,8.62-30.22,4.57-42.36,3.91,4.7,4.84,9.51,9.68,13.83,14.88,6.03,7.25,11.82,14.45,11.06,24.26-1.88,2.14-4.21,4.51-5.78,6.94-11.48,17.8,4.62,10.43,7.13,21.3l-6.47,2.82c-11.78.5-29.86,3.76-40.57-.58l-1.04-3.44c1.69-2.5,3.36-5,5.15-7.42.35-.48,1.07-.83,1.07-1.43-.03-6.63-5.74-14.9-6.08-22.18-.73-15.38,13.86-17.46,18.14-29.93-3.97-10.01-29.93.06-39.62-7.09-.55-15.12,18.99-40.22,26.81-53.13Z"/>
  <path class="st10" d="M2703.88,2269.65h110.53l.02,26.67h-40.88s.01,62.97.01,62.97v43.54h-29.05v-106.51h-40.63v-26.67Z"/>
  <path class="st36" d="M1003.5,1887.06c7.06-19.84,16.52-35.31,13.35-56.78-.51-3.45-.32-5.02,1.09-8.17l4.04-2.93c3.49,3.02,3.95,11.27,6.91,11.83,6.4-6.64,10.82-13.16,10.48-22.85-.43-12.33-16.3-19.36-15.49-32.89,4.51-1.63,5.17-.66,9.61.6,3.96,4.05,6.51,8.01,9.68,12.68,1.85,2.72,1.11,1.79,4.37,3.5,1.34-6.49-1.8-16.27-5.46-21.69-2.32-3.44-4.2-3.95-7.69-5.91-4.9-.01-9.44.23-14.3.75-5.48.6-10.23.79-14.58-3.24-2.29-2.12-1.51-3.04-1.48-5.91,3.83-5.15,7.77-7.98,14.09-8.89,8.91-1.27,17.03,2.86,23.72,8.53,9.16,7.76,13.96,19.33,14.47,31.31.33,7.97-1.27,15.46-3.05,23.17l1.82,2.7,8.94,1.14.23,3.55c-24.6,24.11-21.22,7.37-41.92,44.85,6.96-6.13,15.72-16.38,25.7-15.27.81.09,1.59.33,2.39.5l1.38,3.67c-9.52,19.91-32.98,16.79-35.97,42.04-.62,5.24-1.27,10.29.3,15.41,3.52-2.54,5.64-5.39,8.34-8.75,4.65-5.77,10.75-13.14,18.84-13.29,5.56-.1,7.74,1.57,11.84,4.78,1.29,5.99.54,9.97-3,15.07-9.02,13.03-35.21,15.83-34.99,35.89,2.9,4.33,4.62,5.72,9.34,7.8,10.38-4.52,14.96-17.72,27.85-16.69,1.42,4.73,1.19,7.43-1.15,11.92-3.02,5.82-9.31,11.09-13.96,15.56,4.44,6.62,8.13,12.03,7.22,20.42l-2.97,1.86c-12.11-3.51-25.43-19.83-31.58-30.9-2.49-4.46-3.79-9.67-5.12-14.58-2.33-17.11-3.3-33.51-3.29-50.79Z"/>
  <path class="st8" d="M567.07,2194.88l5.81,2.96c2.01,11.34,4.05,20.97,2.81,32.45-.14,1.3-.05,3.24-.02,4.63l2.89-.49c6.49-10.17-1.39-30.32,11.6-34.95,4.17,2.96,5.69,4.97,6.71,10.19,1.99,10.15-3.07,19.27-8.25,27.44,4.29-.09,7.25-1.1,10.24-4.4,9.54-10.5,6.43-30.06,24.43-31.72,4.55-.42,5.56-.02,9.25,2.3,1.3,4.64,1.47,7.17-.62,11.68-7.57,16.36-29.06,23.81-44.48,30.14,11.77,2.62,23.07,4.27,30.18,15.39,3.12,4.88,4.39,8.74,3.65,14.61l-2.36,1.85c-11.8-4.34-25.61-41.35-59.41-21.92-1.04.6-1.97,1.39-2.95,2.08,11.44,10.04,41.21-1.97,44.07,31.48-2.32,4.28-2.85,4.88-6.97,7.39-11.13.23-18.52-8.24-26.02-15.6-6.88-6.75-13.07-15.95-23.27-16.42-8.03-.37-15.22,5.09-20.37,10.81-3.15,3.49-5.97,7.33-8.79,11.09l-5.64-5.52c7.85-10.45,17.61-21.54,22.41-33.86,2.68-6.9,4.34-14.83.48-21.7-2.43-4.33-7.94-8.84-12.75-10.06-7.02-1.77-13.11-.46-18.89,3.96-4.1,3.14-5.82,7.67-6.62,12.62,1.75,5.65,2.45,6.58,6.7,10.66,4.95.83,4.83.99,9.07-1.68-.54-5.13-2.78-9.24-4.95-13.8l2.12-2.23c2.09.15,5.44.15,7.49.9,5.26,1.93,6.01,2.9,8.2,7.69-.35,3.51-1.11,4.94-3.17,7.94-3.67,5.36-12.01,10.99-18.65,10.95-5.65-.03-6.82-1.25-10.85-4.77-3.15-7.93-3.97-17.81-.12-25.74,2.9-5.99,8.93-10.67,14.93-13.1,7.3-2.96,18.11-3.23,25.1.84,18.05,10.54,5.34,29.97,9.52,44.78,6.22-2.32,12.17-9.24,14.95-15.29,3.07-6.69,2.36-10.58-.06-17.34-.22-.63-2.03-5.51-2.22-6.32-1.15-4.78-.6-7.31,1.69-11.48l3.2-.22c2.19,1.8,4.01,3.43,5.37,5.99,4.91,9.21,3.78,15.48.86,25.1-.25.83-.52,1.65-.78,2.48l.93.81,4.08-1.23c6.24-13.74-1.77-24.83-.81-38.18.08-1.07.21-2.13.31-3.19Z"/>
  <path class="st10" d="M574.52,2236.42c2.94.15,5.17.66,8,1.41,3.58,4.53,3.56,4.83,3.82,10.65l-12.05-1.73-1.97-3.24,2.2-7.09Z"/>
  <path class="st10" d="M1376.8,2269.66h29.13s0,106.75,0,106.75h66.55v26.42s-95.69.01-95.69.01v-133.18Z"/>
  <path class="st10" d="M3286.6,2269.66h29.01s.01,106.75.01,106.75h66.67v26.42s-95.68,0-95.68,0v-133.17Z"/>
  <path class="st36" d="M859.77,1783.84l6.18-.58c16.64,3.91,32.07,8.62,41.91,24.1,6.07,9.53,8.2,20.35,10.65,31.24-10.29-.07-24.05-1.76-33.75,1.4-1.23-.33-4.61-1.22-5.63-1.61-14.69-5.63-27.6-.4-42.22-2.62-3.75-.57-3.77-.05-7.1,1.49-3.97.09-8.39.45-12.31-.2-5.21-.85-6.82-3.48-9.32-7.74.2-4.96,1.04-8.29,3.6-12.45,11.31-18.35,27.89-28.27,48-33.03Z"/>
  <path class="st18" d="M690.61,2129.24c10.37.09,85.21-1.75,87.22-1.1,4.72,1.53,5.01,1.74,7.18,6.23-2.15,5.1-4.55,5.98-8.97,9.08-7.05,15.52,8.83,28.95,6.68,45.43-3.88,4.99-5.62,4.34-11.62,5.47-3.24-7.45-4.79-16.04-6.8-23.93-9.19-.18-18.45.03-27.64.14-40.95.47-16.58,4.76-34.57,23.47l-4.29-.14c-9.87-9.52,2.44-32.41,2.81-45.19.27-9.11-7.49-5.68-10.01-19.46ZM757.61,2160.3l3.57-1.86c.41-4.78-.05-7.3-1.78-11.76-6.09-5.94-11.15-6.08-19.12-5.91-7.71.16-15.4.67-23.11.77-2.35,5.4-5.02,9.74-3.37,15.77,4.53,4.19,10.02,4.29,15.86,3.99,9.43-.48,18.46-1.4,27.95-1Z"/>
  <path class="st10" d="M1652.42,2269.65h29.14v133.15l-29.14.03v-133.18Z"/>
  <path class="st18" d="M1144.65,2362.81c4.31-15.62,9.03-37.86,24.46-46.27.7-.38,1.47-.6,2.21-.91l2.85,2.13,1.33,10.07c14.83-5.68,17.04-48.16,39.35-52.38,3.12,3.64,3.03,3.64,2.56,8.27-1.08,10.84-10.37,21.43-16.33,30.06,3.99,3.84,9.07,4.33,10.49,9.67-6.78,11.93-24.65,14.76-36.24,20.72,13.98,2.28,27.22,5.27,36.34,17.51,4.63,6.21,6.6,13.61,5.06,21.3-1.5,7.28-6.02,13.55-12.4,17.2-6.98,4.04-14.95,4.61-22.59,2.33-9.12-2.73-16.63-8.55-22.32-16.19.39-5.78.59-10.49,3.2-15.8,4.04-3.69,8.41-6.51,13.95-7.1,5.76-.61,8.37.64,12.92,4,2.65,4.72,3.7,6.94,3.37,12.41-2.95,4.6-2.79,5.26-7.86,6.85l-2.92-3.21,2.6-7.02c-2.44-3.55-3.66-3.63-7.36-5.49-5.33,1.17-5.22,1.34-8.62,5.71-.21,4.4-.69,7.02,2.56,10.6,4.7,5.18,15.09,7.82,21.78,7.5,5.12-.25,9.65-2.14,12.78-6.46,3-4.15,4.11-9.38,2.81-14.37-1.73-6.63-6.71-11.22-12.33-14.56-7.17-4.26-16.5-6.31-24.54-3.57-6.48,2.21-11.4,6.72-14.38,12.89l-7.25,8.97c-1.32-.96-3.16-2.16-4.09-3.51-3.01-4.37-2.49-6.66-1.39-11.35Z"/>
  <path class="st1" d="M352.34,2200.33l6.74,2.61c6,6.31,7.56,14.45,10.01,22.65,2.64-6.25,5.48-11.85,9.66-17.21,3.28-4.21,6.14-7.39,11.51-8.06,3.32,3.54,3.43,4.46,4.47,9.29-3.25,8.9-12.97,11.58-16.06,19.07-2.11,5.12.85,15.1,2.39,20.21,5.7-5.91,6.89-12.44,14.43-16.79,4.68-.54,8.63-.36,12.48,2.9,13.58,11.48-15.48,36.38-15.62,50.71,5.44,1.38,14.22-5.65,19.33-8.5l.97,1.32c-3.65,10.46-9.3,19.84-14.67,29.46-5.12-8.02-9.32-16.23-13.5-24.77-2.19-10.03-5.07-20.09-12.56-27.5-14.1-13.94-30.85,6.65-45.66,6.88-4.19.07-4.45-.21-7.67-3.14l1.06-3.34c11.91-11.33,19.91-11.66,35.7-12.85-5.72-1.97-11.66-3.84-17.19-6.31-8.82-3.96-15.55-9.43-19.24-18.64.78-5.5,1.08-5.46,5.11-9.29,5.19-1.68,8.75-2.72,14.16-.53,4.76,1.93,6.39,5.57,8.57,9.9,1.12,2.23,2.18,4.5,3.36,6.7,4.56,8.5,10.43,19.75,20.04,22.54,5.25-6.65-17.47-34.89-17.84-47.31Z"/>
  <path class="st23" d="M414.84,2184.23c-21.16,5.94-47.41,13.13-68.95,5.81-8.52-2.9-15.61-8.51-19.58-16.83-14.57-30.54,17.52-42.16,25.41-66.78-.67-5.33-.91-5.34-4.71-9.15-4.47-.95-4.59-1.77-8.9.38-.14,5.62,1.45,10.31,3.05,15.61l-2.13,1.64c-2.03-.71-5.78-1.71-7.63-3.06-4.25-3.1-4.65-5.02-5.83-9.83.93-3.9,1.58-6.72,4.43-9.72,3.47-3.65,8.56-6.05,13.6-5.94,4.67.11,8.82,2.44,11.54,6.16,19.98,27.33-25.17,41.99-26.45,66.05-.38,7.11,3.63,11.15,8.1,15.81,6.53-11.15,2.84-21.66,15.57-30.94,6.02-4.38,14.49-6.11,21.76-4.75,5.03.94,9.78,3.66,12.1,8.49,2.29,4.77,1.99,10.11-.23,14.82-1.93,4.11-6.52,7.3-10.89,7.92-4.55.65-8.32-1.12-11.96-3.57,1.58-4.67,8.92-7.33,13.15-9.84,2.24-4.33,1.84-4.22.52-8.99l-4.57-1.95c-7.85,1.19-16.4,5.16-21.44,11.64-3.97,5.11-4.45,10.87-3.56,17.1,1.86,3.14,3.25,5.5,6.63,7.22,8.62,4.39,20.76,3.23,29.72.67,26.74-7.65,14.74-20.02,24.4-38.69l3.78-1.17c6.65,4.57,3.57,10.55,8.73,16.12,5.1-6.01,3.88-10.19,4.98-17.85.75-5.21.54-8.28,4.97-11.51l4.32,2.39c2.33,4.24,4.15,9.21,3.4,14.19-1.34,8.86-6.97,13.97-13.83,18.92-4.24,3.06-7.97,6.06-11.81,9.62l2.41,2.98-.12,7.03Z"/>
  <path class="st10" d="M354.69,2338.04c-.93-.25-1.85-.53-2.79-.76-8.87-2.17-25.27,3.74-31.71-2.97,1.52-4.02,3.34-6.14,6.11-9.27,13.63-15.45,12.62-57.02,31.23-58.26,3.96-.27,7.29,1.16,10.86,2.66,4.33,6.24,3.92,10.87,4.63,18.39,1.52,16.14,19.37,30.44,19.38,44.22-5.51,5.35-11.74,4.99-19,4.84-3.74-.08-7.48-.19-11.22-.34l-7.5,1.49Z"/>
  <path class="st9" d="M919.83,2323.72l1.86,12.06c4.52,2.79,6.63,2.2,11.72,2.32-2.75,1.51-5.83,2.09-6.85,5.33-5.03,15.97,10.38,38.79-7.5,51.2-5.49,3.81-16.38,6.19-22.76,3.89-5.3-1.91-9.57-5.06-12.17-10.25-2.66-5.33-2.9-14.62.35-19.98,3.18-5.24,5.84-5.72,11.25-7.88,5.73.77,6.29,1,10.67,4.82l.95,4.34c-5.84,5.3-12.76,5.29-15.42,12.8,2.98,3.87,4.49,5.14,9.81,5.39,4.93.23,10.37-2.12,13.62-5.87,4.28-4.94,4.47-11.72,3.42-17.85-1.03-6-2.56-10.16-5.95-15.13-4.73-2.66-7.04-4.09-12.5-2.6-32.99,8.99-45.44,63.91-73.3,58.56-4.71-3.11-7.31-5.55-8.63-11.36-1.08-4.76-.41-11.1,2.34-15.21,2.58-3.86,6.87-6.61,11.54-6.66,4.95-.06,6.51,2.24,9.32,5.65.47,4.97.88,5.25-1.83,9.32-3.9-.51-7.51-1.5-11.29-2.56l-3.12,1.71c.73,5.21,1.64,5.4,5.42,9.13,5.48,1.18,7.5,1.99,12.74-.89,5.78-3.17,12.53-11.98,13.09-18.71,1.02-12.12-18.88-16.14-6.71-30.31.48-.56,1.03-1.06,1.55-1.59,6.24,4.2,4.93,12.25,11.87,14.24,3.53-3.88,5.07-7.84,7.01-12.63l3.69,2.99,1.64-.2c6.91-3.97,13.9-8.55,22.1-8.27l15.07.51c5.9-4.25,5.39-9.31,6.98-16.31Z"/>
  <path class="st36" d="M1165.98,1746.46c3.61,1.4,5.31,2.1,7.68,5.36,2.82,3.87,5.61,7.52,8.65,11.21,4.85-1.69,9.78-3.89,14.99-3.5,3.12.23,2.32.45,4.48,3.21.94,5.06-.98,8.44-2.91,12.98-1.32,3.1-1.07,1.26-.18,5.26,4.06.91,8.23,1.73,12.2,2.98,4.31,1.36,7.56,2.14,9.61,6.4-7.79,6.55-16.76,4.84-26.2,4.37l-1.9,2.18,1.75,10.73-.49,1.94c-9.27,9.62-18.27-3.32-29.13-1.71-3.3.49-6.69,1.34-10.01,1.9-4.9-2.21-4.66-1.89-6.64-6.95.34-1.74.66-3.49.96-5.23,1.17-7.08,1.55-9.93-2.7-15.86-2.46-3.43-3.62-5.55-4.46-9.84,2.35-5.58,2.65-6.4,7.52-9.83,4.28.32,6.85.5,11.07-.57.88-6.02,2.81-9.87,5.71-15.03Z"/>
  <path class="st34" d="M816.85,2073.83c4.26-.05,8.35.28,12.59.63,5.17,3.43,8.73,6.67,11.63,12.33,5.91,11.51,8.67,31.02,4.21,43.29-2.04,5.6-2.55,8.19-7.86,10.52-7.15.58-17.29,2.56-23.85-.91-5.76-3.05-9.89-8.91-11.43-15.27-4.33-17.94,5.63-36.12,14.7-50.59Z"/>
  <path class="st18" d="M1050.79,2266.24c-7.26.16-10.56,1.15-16.85-2.78-2.05-4.12-3.38-5.35-1.68-9.97.82-2.23,3.04-5.11,4.28-7.01-1.03-4.86-2.33-6.27-5.29-10.09.46-5.18.19-4.87,4.08-8.2l9.52-.17c1.61-7.02,1.39-13.16,7.59-17.27,2.37.23,4.8-.22,6.57,1.65,2.94,3.11,3.77,7.92,4.92,11.96,5.35,1.78,14.98-5.67,18.05.14,3.49,6.62.27,16.13,4.24,24.52,1.76,3.74,2.12,3.74,1.24,7.85-4.83,2.62-9.57,2.68-14.9,3.1-.73,3.47-1.52,6.89-2.42,10.31-5.07,1.24-6.18.21-11.01-1.29-.26-.18-.47-.47-.78-.55-3.05-.8-4.71-.93-7.56-2.2Z"/>
  <path class="st10" d="M955.61,2313.48c6.57.44,9.7.03,15.32,3.7,2.15,6.89-1.45,15.36-3.3,22.13,9.01,20.04,20.85,30.52,10.02,53.12-2.62,5.46-4.56,9.25-4.46,15.47.01.85.09,1.69.14,2.54-4.81.24-9.23.62-13.95-.63-5.15-5.66-10.35-11.31-12.28-18.99-4.83-19.23,4.28-33.83,12.93-49.87-2.13-9.23-4.36-17.93-4.41-27.47Z"/>
  <path class="st18" d="M1140.6,2306.75c2.21-.9,4.42-1.8,6.68-2.54,5.86-1.91,9.57-.9,14.9,1.82l.13,3.35c-7.96,8.47-23.05,7.72-33.62,12.36-8.86,3.9-16.54,10.43-24.11,16.41l-3.05-.91c.56-6.18,6.16-11.56,9.82-16.27,19.48-25.06-9.7-50.78-10-77.23-.05-4.89.85-6.66,4.28-9.88,4.01-.85,7.41-1.89,11.45-.44,23.17,8.32,9.76,56.6,13.88,66.05l4.35,8.19,3.22.61,2.07-1.52Z"/>
  <path class="st10" d="M748.35,2363.07c22.27-.01,44.43,1.24,66.75.89-8.05,12.79-13.01,23.09-16.36,37.81-3.06,3.6-3.98,5.02-8.31,6.7-6.91,2.68-14.69,4.16-21.52.18-7.35-4.28-12.59-13.84-14.78-21.81-.98-3.57-1.78-6.74-3.45-10.06-.56-1.1-1.15-2.18-1.7-3.29-2.61-5.28-2.5-4.89-.63-10.42Z"/>
  <path class="st14" d="M722.35,1745.77c9.38-.09,23.27.58,31.16,6.03l.42,3.27c-8.95,13.59-37.67,21.75-52.05,30.53-13.59-5.72-28.91-7.35-43.36-9.81-2.42-2.18-4.12-4.62-6.08-7.22-.08-5.38-.47-6.9,3.9-10.73,9.93-8.68,23.97.93,34.43,3.62.8-4.64,1.31-7.36,4.22-11.09,5.26,4.79,3.31,14.39,6.27,21.33,5.31-10.78,9.58-17.1,19.13-24.46l1.95-1.47Z"/>
  <path class="st36" d="M1102.14,1751.92c21.18,7.5,10.16,25.25,17.97,39.63,4.44,1,8.86,1.75,12.84,4.11,2.86,1.69,2.23,3.34,2.8,6.39-5.38,4.77-12.46,1.58-16.39,7.08,1.15,7.95,1.18,11.83-2.14,19.19-2.5.24-5.01.5-7.52.63-5.52.3-8.73-.11-12.86-3.91-.12-3.47.14-8.17-.85-11.46-2.1-7.01-6.72-7.32-12.7-9.85-2.53-4.01-2.38-3.73-1.48-8.43,2.85-1.51,5.47-2.71,8.53-3.77.98-.34,1.97-.66,2.95-.98,2.01-13.77,2.74-25.93,8.85-38.63Z"/>
  <path class="st34" d="M737.09,2045.27l9.56-.73c-1.44,9.78-3.52,25.33,1.53,34.29,2.16,3.83,5.47,6.1,9.9,5.9,4.57-.2,7.89-2.39,10.87-5.65,2.65-9.64-.1-19.82-.85-29.68l2.14-.96c4.76,3.81,7.74,6.37,9.87,12.45,2.27,6.49,1.63,16.37-2.05,22.25-7.23,11.56-19.6,6.62-31.15,9.67l.48,2.35c3.66,1.84,6.61,3.6,9.76,6.25l-.7,3.06c-3.66,2.17-6.6,3.72-10.85,4.32-7.43,1.06-13.11-.24-19.14-4.82l.38-3.12c4.17-3.12,8.14-5.58,10.54-10.42l-2.2-3.41c-7.16.87-16.21,4.8-23.21,3.29-4.46-.96-8.12-4.51-10.04-8.68-3.14-6.8-2.33-15.4.25-22.24,1.75-4.64,3.88-8.62,8.4-10.85,8.02,4.82-3.61,19.77-.72,29.8,3.98,4.09,5.95,5.26,11.51,6.41,3.32-.77,5.4-1.41,7.91-3.98,7.58-7.74,8.99-21.2,8.2-31.56-.1-1.32-.25-2.63-.37-3.94Z"/>
  <path class="st18" d="M797.81,2148.8c15.06-.35,33.37-3.66,47.89-1.5,4.14.62,3.8.6,6.27,4.34.11,10.82-6.27,23.42-8.71,34.42-3.13,4.89-5.72,7.48-11.37,9.44-4.43,1.54-8.85,1.26-12.98-1.07-7.61-4.31-12.24-15.09-14.41-23.12-2.29-8.47-6.61-13.54-6.69-22.51Z"/>
  <path class="st10" d="M998.99,2290.49c-2.77,2.01-5.26,3.61-8.45,4.88-13.43,5.34-30.05,4.35-43.14-1.76-5.32-2.48-10.55-6.72-11.64-12.92-.79-4.5,0-8.31,3.44-11.43,8.04-7.3,23.89-8.06,34.01-7.42,14.47.92,19.46,6.25,28.43,16.86-.77,3.8-1.22,8.22-2.64,11.79Z"/>
  <path class="st10" d="M771.62,2199.92c6.11,5.32,10.39,6.53,18.37,7.45,3.83.45,1.84-.47,5.1,3.14-.75,3.51-1.22,6.66-1.32,10.25,3.8,1.98,6.44,3.24,9.02,6.77l-.67,4.15c-14.62,9.72-2.74,12.13-9.58,22.62-5.52-.09-9.11-2.67-13.71-5.42l-6.32,6.82c-5.76.76-3.7-5.35-8.66-9l-10.01,1.83c-4.14-2.13-4.1-2-5.87-6.34,2.1-3.51,4.02-6.97,5.77-10.67-1.76-3.82-2.83-6.81-3.4-10.99l3.86-4.03c1.34.09,3.1.31,4.39-.03,6.93-1.82,9.87-10.65,13-16.55Z"/>
  <path class="st42" d="M769.98,1781.82l8.02,5.72-.46,2.56c-2.51.42-4.01,1.43-6.21,2.68-6.85,10.64-8.72,21.93-10.82,34.29,6.63-3.83,16.28-10.91,24.18-10.06,5.42.59,6.28,2.09,9.06,6.24-.06,5.26-.9,8.36-3.77,12.65-7.64,11.41-19.28,13.9-31.85,16.51-3.15,5.57-7.46,15.51-13.51,17.71-1.63-8.09,2.72-21.74,4.6-29.88,4.84-20.92-5.57-38.03-3.17-57.87l2.86.75c4.27,6.13,6.05,13.51,8.26,20.6,4.11-6.36,12.4-14.6,12.79-21.9Z"/>
  <path class="st38" d="M964.72,1749.79c5.27-.11,10.79-.44,15.81,1.46,6.92,2.62,12.96,8.03,15.74,15.05,3.64,9.18,1.83,21.15-2.5,29.78-3.84,7.67-10.75,13.82-19.05,15.85-9.38,2.3-20.91,1.61-28.99-4.19-5.32-3.81-7.67-8.09-8.87-14.55l1.97-2.32,2.61,2.18c11.42,9.33,17.7,11.34,32.45,9.77,6.72-5.26,12.33-10.35,13.69-19.3.99-6.51-.4-17.81-5.15-22.76-3.94-4.09-5.45-3.7-10.72-3.73-5.12,3.17-7.26,5.24-10.54,10.34,2.61,5.1,9.56,4.56,14.8,6.82,3.44,1.48,2.8,2.22,3.99,5.54-1.13,3.04-1.36,5.33-3.99,7.41-4.04,3.18-9.79,4.44-14.84,3.34-4.92-1.06-8.4-2.81-10.89-7.46-2.48-4.63-3.04-11.5-1.55-16.55,2.74-9.36,8.25-12.06,16.03-16.68Z"/>
  <path class="st12" d="M676.35,2381.9c5.39-14.46,8.42-30.22,21.34-39.95,3.95-.83,6.34-1.54,9.85,1.43,4.25,3.58,4.36,6.33,4.7,11.4-5.68,13.54-27.21,22.01-30.1,33.5-1.78,7.07-1.28,16.22-1.59,23.56-5.37-11.6-10.25-23.61-17.61-34.07-11.5-4.15-22.35-6.37-28.24-18.39l.78-4.46c5.09-2.87,9.19-3.58,14.88-1.67,9.69,3.25,13.84,9.74,19,18.11,2.27-3.25,2.88-8.26,2.1-12.29-.55-2.84-1.27-4.12-2.38-6.59,4.82-2.35,8.17-6.64,11.8-10.52-2.14,13.37-4,26.39-4.54,39.94Z"/>
  <path class="st18" d="M585.6,2110.89c11.45-.7,25.47-2.2,36.42,1.46,7.38,2.47,12.37,5.56,16.08,12.66-.02,4.88.03,5.07-2.86,8.94-5.77,2.78-9.6,2.95-15.77,2.8-15.1.39-32.59,2.55-47.35-.53-6.03-1.26-8.83-3.04-12.12-8.25.03-3.17.31-5.11,2.04-7.93,4.81-7.83,15.37-7.9,23.57-9.15Z"/>
  <path class="st18" d="M1042.41,2316.33c6.14-15.65,9.51-22.48,25.6-29.36,8.89-3.8,16.68-5.25,25.99-2.48,4.66,4.2,4.96,4.96,6.72,11.06-1.42,9.15-6.63,14.47-13.82,19.75-7.36,5.41-18.39,12.4-27.89,10.44-4.39-.91-8.95-2.73-13.2-4.2l-3.4-5.21Z"/>
  <path class="st10" d="M884.23,2245.29c.01-12.71-.52-21.87,8.96-31.56,6.68-6.82,15.57-10.97,25.11-11.04,3.38-.03,5.91.97,9,2.23,2.6,4.44,1.25,9.8.18,14.79-2.17,10.13-8.61,16.66-17.16,21.75-7.51,4.48-16.66,5.76-23.88,10.68l-2.2-6.85Z"/>
  <path class="st10" d="M883.56,2318.08c6.79-11.16,13.91-23.38,27.6-26.26,5.53-1.17,10.21-.73,15.7.22l4.47,3.36c.55,6.59-1.2,10.3-5.26,15.47-7.11,9.05-16.54,16.9-26.95,21.62l-3.99-.93-2.37-6.4-4.58-.42c-6.89,7.47-9.33,13.53-12.5,23.05l-1.64.2-3.69-2.99,1.11-3.19c1.99-5.47,2.23-10.63,2.78-16.38l3.51-5.99,5.82-1.36Z"/>
  <path class="st18" d="M444.03,2161.24c2.74,2.12,4.01,3.41,6.18,6.29,6.64,2.29,15.21,3.6,18.65,10.66,1.18,2.41,1.46,4.12,2.05,6.64l-1.81,4c-13.78,4.94-27.65-11.45-39.37-2.81-4.89,11.76-9.99,25.15-20.07,33.26l-3.54-.2c-2.63-4.17-4.05-9.81-3.2-14.81,1.13-6.6,7.98-14.46,11.91-20.04l.12-7.03c10.4-4.59,19.61-9.62,29.08-15.96Z"/>
  <path class="st48" d="M1153.41,2261.46l1.88-2.43c2.88-3.78,7.37-8.88,8.97-13.31,3.5-9.75-4.13-30.29,8.27-32.29l8.7,4.15c3.89-1.75,6.5-4.16,9.65-7.01,2.28.43,3.99-.02,5.25,2.24,1.9,3.4,1.37,7.12,1.35,10.89,5.14,4.59,10.18,1.52,15.16,6.08-8.3,13.77-49.96,19.87-48.9,35.2l4.25,1.83-3.46,1.67-5.87-2.59c-2.42-3.91-.75-2.34-5.25-4.43Z"/>
  <path class="st34" d="M1144.65,2362.81c-1.1,4.69-1.62,6.98,1.39,11.35.93,1.35,2.77,2.55,4.09,3.51-7.6,8.57-13.56,19.18-24.42,23.73l-1.86-2.29c3.57-12.38,11.66-20.83,19.51-30.65-14.65,8.45-40.59,38.07-56.79,36.66-5.89-.52-6.86-1.95-10.71-6.03-1.55-5.66-1.99-9.39.49-14.93,2.3-5.12,6.12-6.64,10.9-8.58,4.61.69,5.25.01,8.71,3.5-1.07,5.99-7.38,10.39-11.58,14.42l.14,2.16c23.62-2.81,30.68-28.72,60.13-32.85Z"/>
  <path class="st18" d="M809.55,2046.47c-7.83-1.57-16.23-1.11-23.94-3.21-5.13-1.39-7.22-3-9.91-7.49,3.78-5.67,11.21-3.26,16.07-8.5-.71-1.61-.81-2.07-2.09-3.55-3.73-4.33-7.4-4.45-12.79-5-.69-.07-6.06-.53-6.91-.78-5.7-1.61-5.88-3.36-8-8.38.53-5.62-.22-6.62,3.87-10.3,6.63.22,10.17,2.33,15.68,5.65l1.36,2.65,4.22-1.24c4.16,10.02,13,28.33,22.88,33.33,10.62,5.37,19.85-10.8,29.44,2.51-1.52,6.27-7.16,10.09-12.51,13.38-4.86,2.99-9.94,4.45-15.4,5.87-1.95-4.64-1.67-9.93-1.97-14.94Z"/>
  <path class="st10" d="M871.42,2267.14c-8.86-7.64-20.39-15.66-24.98-26.8-3.27-7.94-5.97-21.47-1.18-29.36,2.87-4.73,5.75-4.88,10.6-5.9,5.36,1.37,9.12,3.16,12.57,7.66,7.38,9.6,6.26,20.43,5.07,31.82-.78,7.43-1.35,12.32,1.31,19.48.2.53.42,1.06.64,1.6l-4.02,1.5Z"/>
  <path class="st18" d="M1036.17,2363.63c12.81-12.11,25.97-24.93,44.9-24.14,5.92.25,12.74,2.31,16.37,7.44,3,4.24,2.21,6.9,1.47,11.6-3.83,5.63-7.68,8.19-14.25,9.55-19.65,4.07-30-11.23-45.62,5.08-2.07-3.41-2.53-5.55-2.87-9.53Z"/>
  <path class="st36" d="M935.98,1747.15c1.89,1.11,3.18,2.67,4.71,4.23-2.01,13.13-4.68,27.52-15.29,36.53-3.99,3.4-8.74,5.28-14,4.17-7.88-1.66-12.21-8.76-16.58-14.91-2.49-6.34-6.07-14.75-3.87-21.49,3.87-1.95,4.11-1.13,8.15-.23,3.41,2.98,4.24,5.36,5.55,9.58,1.33,4.27,1.27,4.79,4.55,8.11,2.45-2.16,3.87-3.94,5.35-6.89,6.05-12.01,9.14-14.17,21.43-19.1Z"/>
  <path class="st10" d="M1002.24,2249.32c-3.72,1.33-6.31,1.97-10.33,1.78-11.81-.56-27.23-11.36-33.86-20.91-3.26-4.7-3.66-7.23-3.01-12.79,2.81-2.64,4.24-3.38,8.13-4.08,14.64-2.65,26.65,2.64,37.74,11.61-.19,8.21-.96,16.43,1.33,24.39Z"/>
  <path class="st18" d="M1143.28,2195.66c2.73,3.24,6.67,7.39,7.91,11.51,2.83,9.48-.76,23.27-.53,33.3.16,6.94,1.65,14.14,2.75,20.99,4.5,2.09,2.83.52,5.25,4.43l-7.8,1.14c-.4.95-.77,1.91-1.19,2.85-1.08,2.41-1.53,4.04-3.94,5.43-.86.5-1.92.52-2.88.78.77-18.24-2.53-36.75-4.83-54.81-6,.12-13.69.88-19.48-.85-4.62-1.39-8.32-4.05-10.83-8.21l1.67-4.93c8.95-2.71,17.82,1.25,26.49,3.54.52-4.48-3.56-8.05-6.04-11.67,4.1-2.22,8.91-2.63,13.45-3.5Z"/>
  <path class="st1" d="M497.72,2348.3c.9-.02,1.81-.08,2.71-.07,6.28.09,12.23,1.27,16.16,6.78,2.76,3.87,4.03,9.68,2.63,14.31-1.62,5.36-3.88,6.67-8.22,9.4-5.44-.55-6.04-.66-10.28-4.12.89-5.65,7-8.9,9.97-14.07-3.58-3.47-4.07-2.88-8.72-3.65-3.16,1.65-3.93,1.54-5.87,4.82-3.18,5.4-3.84,13.57-1.87,19.53,2.27,6.87,6.37,10.9,12.44,14.28,4.74,1.54,7.85,2.67,11.85,5.83l-1.6,2.55c-9.35,3.41-15.72-1.31-25.04-1.43-6.22-.07-12.59,2.74-18.6,2.55-3.94-.13-5.07-1.81-7.53-4.62,5.86-6.74,17.51-3.51,22.85-12.49-2.18-6-4.35-12.48-3.55-18.98,1.17-9.51,5.5-14.82,12.65-20.62Z"/>
  <path class="st18" d="M1012.88,2089.06c7.53-.25,14.44-1.1,21.47,2.1,3.45,6.34,11.27,10.45,12.73,17.35-1.8,3.44-3.62,4.19-6.95,5.79-3.62,1.73-3.99,1.67-6.46,5.14,2.41,2.71,3.8,4.95,5.27,8.28-4.35,1.66-11.06,4.14-15.82,3.81-3.2-.23-5.35-.87-7.54-3.23-6.62-7.12-7-19.85-7.04-29.23-.02-5.13.69-6.61,4.34-10.01Z"/>
  <path class="st20" d="M1157.38,2368.7c2.98-6.17,7.9-10.68,14.38-12.89,8.04-2.74,17.37-.69,24.54,3.57,5.62,3.34,10.6,7.93,12.33,14.56,1.3,4.99.19,10.22-2.81,14.37-3.13,4.32-7.66,6.21-12.78,6.46-6.69.32-17.08-2.32-21.78-7.5-3.25-3.58-2.77-6.2-2.56-10.6,3.4-4.37,3.29-4.54,8.62-5.71,3.7,1.86,4.92,1.94,7.36,5.49l-2.6,7.02,2.92,3.21c5.07-1.59,4.91-2.25,7.86-6.85.33-5.47-.72-7.69-3.37-12.41-4.55-3.36-7.16-4.61-12.92-4-5.54.59-9.91,3.41-13.95,7.1-2.61,5.31-2.81,10.02-3.2,15.8-1.48-5.46-1.52-11.95-2.04-17.62Z"/>
  <path class="st41" d="M620.44,1745.87c5.36,1.14,9.56,2.25,12.84,6.85-3.87,6.28-22.02,1-29.9,11.67-3.07,4.14-4.55,8.27-3.5,13.5,1.2,5.98,6.02,12.22,11.8,14.26,4.6,1.62,6.39.34,10.15-1.9,2.52-4.52,3-6.82,2.87-12.01-4.57-2.73-7.75-.73-12.76.36l-1.89-1.95c3.29-6.99,5.32-7.57,11.63-11.56,2.58,1.63,5.21,3.3,7.33,5.55,3.45,3.68,5.42,8.88,4.83,13.98-.64,5.59-4.06,9.57-8.4,12.71-5.45,3.93-13.71,4.83-19.95,2.68-5.65-1.95-9.74-6.51-11.92-12.05-2.87-7.32-3.55-15.52-.16-22.78,5.22-11.17,16.11-15.81,27.01-19.31Z"/>
  <path class="st7" d="M354.69,2338.04l7.5-1.49c-.68,16.82-.28,33.19,1.24,49.95,4.4.94,9.5,1.63,13.68,3.25,5.15,2,5.45,3.09,7.35,7.87l-1.76,3.13c-7.05,3.55-14.33,3.75-22.06,3.56-9.08-.22-22.42-.51-29-7.43l1.06-3.58c6.03-4.74,13.95-5.68,21.26-7.28.87-15.94.21-32.01.74-47.98Z"/>
  <path class="st2" d="M386.09,2351.08c2.71.12,6.04.06,8.73.68,4.87,1.12,9.01,3.24,11.67,7.71,6.34,10.66.68,27.87-1.8,39.16,3.77-1.62,7.57-3.22,11.39-4.7,9.25-3.57,18.58-5.39,27.88-.97,4.21,2,4.54,2.27,6.06,6.48l-3.19,3.18c-7.27,1.79-14.53-1.09-21.57-3.05-9.95,1.21-20,3.86-29.84,5.89,2.47-8.23,6.07-16.58,6.53-25.25.35-6.53-1.15-11.9-5.64-16.65l-3.05.47c.19,1.28.37,2.57.58,3.85.21,1.25.45,2.5.67,3.74-3.44,3.39-5.55,3.76-10.22,4.49-4.11-2.29-3.83-2.27-5.35-6.82.87-7.46,3.3-11.85,7.13-18.21Z"/>
  <path class="st27" d="M582.87,1970.55c4.2-1.03,8.09-2,12.41-2.4,13.94,2.54,26,2.03,40.03.5,7.89.18,16.36-.28,24.05,1.6l-19.13,6.44-.7,2c3.95,2.82,8.08,5.14,10.33,9.64-2.07,1.62-3.18,3.34-5.97,3.17-8.22-.51-15.47-6.47-20.88-12.28l-26.77-4.18c-13.01,12.62-26.5,20.05-42.8,27.53,7.2-10.98,15.14-19.82,25.96-27.22,2.99-2.05,1.52-.45,3.49-4.8Z"/>
  <path class="st21" d="M832.22,1973.29c4.01-.11,7.64-.39,11.41,1.35,5.67,2.63,11.34,9.01,12.32,15.34.68,4.41-1,9.27-3.94,12.54-3.91,4.33-6.56,4.55-11.93,5.45-4.7-2.48-4.54-2.17-6.26-7.24,2.84-4.22,6.48-3.87,11.21-5.03,2.65-3.77,2.42-4.59,2.56-9.3l-3.53-3.3c-4.95-.44-8.32-.16-12.71,2.17-7.03,3.73-8.26,10.72-10.16,17.84,2.91,6.07,4.88,10.71,10.41,14.84,6.98.43,14.77-.02,20.75,4.03l-.41,3.06-5.55,3.59c-3.71.5-6.19.63-9.87-.44-8.2-2.38-16.86-11.03-20.65-18.59-2.89-5.77-3.34-13.2-1.15-19.28,3.29-9.13,9.27-12.9,17.51-17.03Z"/>
  <path class="st18" d="M1009.26,1976.01c3.68.52,7.63.95,11.13,2.23,5.42,1.98,7.9,5.66,10.21,10.8.9,14.22-6.03,23.73-13.02,35.37-2.53,3.53-3.06,3.86-6.73,5.67l-2.73-2.17c-5.46-16.77-5.56-35.54,1.14-51.9Z"/>
  <path class="st9" d="M510.96,2296.81c.68-.29,1.38-.53,2.03-.88,3.37-1.79,5.54-3.99,8.35-6.52,6.43-5.8,13.07-10.68,22.18-9.68,5.34.59,7.48,2.44,11.19,6.14.43,4.8.92,6.9-3.04,10.53-8.69,7.97-20.88,4.5-31.09,2.61l-1.77,2.27c-7.84,10.2-10.84,17.7-13.62,30.16l-1.74.26c-3.55-12.03-2.99-22.17-1.81-34.49,1.2,3.66.57,4.21,4.03,6.23l-2.98-2.99,2.72,5.84c1.54-5.2,1.23-6.44,5.55-9.48Z"/>
  <path class="st42" d="M900.86,1856.5c5.98-.98,16.47-.39,21.72,3.48,4.02,2.97,6.04,6.31,6.18,11.46.13,4.92-2.94,11.08-6.49,14.45-3.83,3.65-6.36,4.14-11.42,4.18-4.02-3.98-4.29-5.08-5.82-10.63,4.35-2.68,8.69-4.53,13.41-6.4l-2.71-5.9.08-.12-8.39-2.94c-29.66,18.85-9.75,36.83-20.63,49.47l-2.92-1.47c-3.46-9.18-2.36-19.72-.92-29.28,2.03-13.46,7.44-18.5,17.93-26.3Z"/>
  <path class="st3" d="M1022.69,2315.33l1.37,3.7c-1.52,1.22-3.19,2.81-4.86,3.78-6.59-1.81-12.44-3.61-19.32-2.09-6,1.32-11.24,4.85-13.87,10.67-2.18,4.81-2.09,10.59-.14,15.47,1.83,4.58,5.71,8.36,10.47,9.59,4.58,1.19,10.54.19,14.39-2.64,4.28-3.14,4.61-5.7,5.55-10.53-2.65-4.45-3.48-4.57-8.2-6.79l-2.69,1.59-.6,9.3-2.87.95-3.99-2.49-1.06-4.73c1.91-4.4,4.1-7.68,8.8-9.44,4.68-1.75,7.21-.25,11.42,1.55,2.46,3.21,4.61,4.9,5.18,9.06.78,5.77-.66,8.96-4.31,13.34-3.92,4.69-11.14,7.63-17.11,7.76-6.39.09-12.52-2.53-16.93-7.22-4.91-5.27-7.63-12.6-6.74-19.88.93-7.59,5.71-14.15,11.87-18.3,7.38-4.96,15.83-4.51,24.11-2.66,2.96.67,5.05,1.59,8.07.7.52-.15.98-.46,1.47-.69Z"/>
  <path class="st36" d="M699.76,1932.92c-1.34-7.82-4.71-18.63-1.08-26.05l4.45-2.37c6.33,3.41,4.67,11.2,10.88,12.32,5.18-4.67,10.84-11.65,17.7-12.53,1.75,7.2-3.53,11.65-3.45,17.83.06,4.51,11.66,5.61,11.03,11.33l-.25,2.3c-10.19,1.57-18.66.09-28.68-1.59-3.06,1.67-5.5,3.29-8.12,5.61l-2.48-6.85Z"/>
  <path class="st24" d="M675.06,2018.07c-.37-.35-.78-.65-1.09-1.05-6.68-8.43-11.73-18.2-11.21-29.24.3-6.37,2.03-11,6.58-15.46,3.88-.6,4.73-1.05,7.96,1.75,10.4,8.99,11.87,27.06,13.3,39.87l-1.86,3.18c-3-2.22-1.82-.65-2.74-5.22-4.77,2.59-2.25.89-5.35,3.48-2.68,2.24-1.37,1.31-5.59,2.69Z"/>
  <path class="st47" d="M1167.99,2266.81c7.79-1.41,13.9-2.29,21.75-1.03l1.86,2.75c-2.77,6.29-11.81,10.78-18.02,13.02-6.06,2.18-12.63,1.98-18.96,2.23-.84.04-1.67.09-2.5.14-5,6.08-12.15,12.95-14.24,20.66l2.72,2.17-2.07,1.52-3.22-.61-4.35-8.19c6.71-6.04,8.97-15.08,11.89-23.38.96-.26,2.02-.28,2.88-.78,2.41-1.39,2.86-3.02,3.94-5.43.42-.94.79-1.9,1.19-2.85l7.8-1.14,5.87,2.59,3.46-1.67Z"/>
  <path class="st18" d="M690.61,2013.94c4.58-7.62,7.65-12.6,15.26-17.25l3.64.13c2.84,7.68-3.02,18.65-6.23,25.79-5.7,12.67-12.66,23.41-17.3,36.75-2.67-14.47-4.69-27.91-10.91-41.29,4.22-1.38,2.92-.45,5.59-2.69,3.11-2.59.58-.89,5.35-3.48.92,4.57-.26,3,2.74,5.22l1.86-3.18Z"/>
  <path class="st43" d="M811.12,1746.15c2.21-.34,4.43-.61,6.65-.82,8.38-.71,17.51,1.21,23.6,7.59,3.37,3.53,5.52,7.24,4.78,12.35-1.19,8.22-7.56,12.53-13.78,16.76-3.05-1.32-7.38-2.74-9.96-4.81-9.65-7.73-.1-12.72-.88-20.72-5.2-.37-10.02-.49-14.91-2.5.14-4.03,2.01-4.87,4.51-7.85Z"/>
  <path class="st26" d="M1027.07,2333.12c2.8-5.26,1.75-11.55,6.33-15.16l.35,8.22-.93,3.98c3.66,1.42,4.12,1.28,7.79.62-2.6,10.68-6.69,21.85-4.44,32.85.34,3.98.8,6.12,2.87,9.53-4.71,6.54-9.21,13.34-14.38,19.51-6.06,7.24-17.81,18.41-28.06,17.69-3.96-.29-5.49-1.41-7.87-4.34.71-.23,1.43-.45,2.13-.69,1.09-.37,2.17-.77,3.26-1.13,10-3.36,18.07-8.23,24.27-17.17,10.27-14.78,12.7-34.13,9.19-51.52-.16-.8-.34-1.59-.51-2.39Z"/>
  <path class="st36" d="M769.98,1781.82c-3.59-1.32-3.88-1.55-6.23-4.3,1.74-6.13,8.01-6.02,12.27-10.86-.19-5.75-.29-10.28,1.54-15.85,3.65-3.14,3.5-4.03,8.49-4.36,5.05,5.37,2.81,18.63,7.62,22.24,4.71,3.53,8.8.18,13.51,6.01l-1.75,5.11c-8.62.8-17.44.91-25.47,4.42l-1.96,3.31-8.02-5.72Z"/>
  <path class="st37" d="M699.76,1932.92l2.48,6.85.96,3.98c8.95,1.95,22.92,3.2,28.09,11.25l-1.57,3.5c-11.81.61-18.93-9.73-31.44-6.1-.79.23-1.59.41-2.38.65-12.93,3.83-24.09,12.23-36.55,17.2-7.69-1.88-16.16-1.42-24.05-1.6,23.39-5.7,50.16-14.85,64.46-35.73Z"/>
  <path class="st45" d="M829.81,1837.26c3.32-1.54,3.35-2.06,7.1-1.49,14.61,2.22,27.53-3.01,42.22,2.62,1.02.39,4.4,1.28,5.63,1.61-.97,3.05-1.96,5.7-3.9,8.28-3.87,5.15-8.18,9.12-14.97,9.17-10.64.08-22.6-9.75-29.33-17.24-2.27-2.52-3.54-2.2-6.74-2.95Z"/>
  <path class="st10" d="M889.57,2281.51c5.27-10.68,9.64-22.7,21.57-27.14,5.97-2.23,9.79-1.25,15.23,1.6,2.09,5,2.54,6.2.13,11.56-5.44,12.08-21.12,12.33-31.71,15.63l-5.23-1.65Z"/>
  <path class="st13" d="M1137.13,2003.11l8.13-.77c.14.6.28,1.2.44,1.79,2.71,10.38,7.18,14.35,15.9,19.92,4.59.39,7.2,1.17,10.54-2.97,1.05-1.31,2.09-4.17,2.74-5.78-2.87-2.95-4.29-3.56-7.97-5.1l-.45-3.8c3.46-4.32,3.34-3.94,8.82-4.66,4.4,1.9,7.27,2.33,8.78,7.5,1.8,6.18-.68,15.52-4.29,20.58-1.82,2.54-4.39,3.16-7.09,4.46-9.49-.26-19.81-4.71-26.49-11.77-5.25-5.55-6.88-12.21-9.06-19.4Z"/>
  <path class="st10" d="M707.88,2384.61c8.95-.87,17.75-2.18,25.9,2.51,3.26,1.88,2.64,2.75,3.51,6.12-2.82,6.27-7.22,8.64-12.68,12.23-8.16,1.65-17.2,3.19-24.36-2.13-2.82-2.09-2.29-2.99-2.92-6.19,1.77-6.06,5.93-8.75,10.56-12.54Z"/>
  <path class="st17" d="M738.54,1986.98l-2.36-.85c-5.26-1.94-9.43-2.89-12.64-7.89,2.56-3.75.92-2.71,5.53-3.69,9.25-1.98,20.48-.97,29.53,1.48l3.55,3.45-1.23,2.88c-4.89,1.19-9.38,2.18-13.98,4.28-1.74,11.98-2.71,28.41-.36,40.25-3.48-.14-5.93-1.73-9.05-3.19-.67-12.22.34-24.51,1-36.72Z"/>
  <path class="st6" d="M884.23,2245.29l2.2,6.85c-.98,9.61-3.09,20.11-1.05,29.61,3.07.79,1.69,1,4.19-.24l5.23,1.65c-7.82,11.87-12.59,20.2-11.24,34.92l-5.82,1.36c-.91-9.8-2.18-15.73-8.01-23.75l5.11-2.46,2.74.13c2.36-8.55-2.59-18.64-6.15-26.22l4.02-1.5,1.52-.45c4.68-5.01,5.52-13.21,7.26-19.9Z"/>
  <path class="st17" d="M1035.04,2172.51l10.75-6.98,8.01,7.23-4.3,4.51c-9.87,4-24.11,14.84-34.83,13.43-4.83-.64-5.95-2.1-8.54-5.75.9-4.21,1.39-5.34,4.72-8.37,4.41-4.02,8.74-3.57,14.22-3.09,3.13.28,5.41.86,8.45-.22.54-.19,1.01-.51,1.52-.76Z"/>
  <path class="st43" d="M470.19,1830.29c5.77-.02,12.86-.56,17.4,3.27-8.83,11.1-23.01,11.15-32.2,25.07-.41.62-.81,1.25-1.21,1.88-1.11,3.7-2.4,6.59-4.34,9.91l-2.1-.92c-1.35-6.27-.45-11.42,1.63-17.39,3.98-11.41,10.43-16.69,20.83-21.82Z"/>
  <path class="st28" d="M1000.91,2224.93c17.45,21.2,25.81,45.2,26.67,72.82l-8.1-4.17c.63-10.8-.21-23.04-4.79-32.96-3.02-6.56-5.89-8.79-12.45-11.3-2.29-7.96-1.52-16.18-1.33-24.39Z"/>
  <path class="st10" d="M501.64,2297.21l-1.79-5.13-2.14-1.83-2.9-2.54c-2.05-1.78-4.4-3.52-6.08-5.68-3.07-3.96-4.04-6.47-3.49-11.38,3.85-2.02,8.57-2.16,12.77-1.11,5.56,1.38,8.37,6.37,11.51,10.81l5.64,5.52-4.22,10.94c-4.32,3.04-4.01,4.28-5.55,9.48l-2.72-5.84,2.98,2.99c-3.46-2.02-2.83-2.57-4.03-6.23Z"/>
  <path class="st15" d="M328.51,2014.69c3.65,2.58,6.84,5.45,8.8,9.6,3.27,6.92,1.17,11.58-1.45,18.17-2.01,5.07-3.44,9.23-4.31,14.61,5.48,11.81,13.71,3.36,22.94,8.12.71.36,1.3.93,1.95,1.39-4.34,2.4-10.08,4.26-14.99,4.86-5.53.68-7.98-.99-12.34-4.1-7.45-15.69,2.15-33.34-.23-50.31-.11-.79-.25-1.56-.38-2.34Z"/>
  <path class="st43" d="M778.01,1787.54l1.96-3.31c8.03-3.51,16.85-3.62,25.47-4.42-.58,7.13,6.55,10.63-.32,16.21-5.66,4.6-13.02,5.08-19.99,5.76-5.15-3.64-5.31-5.88-7.58-11.68l.46-2.56Z"/>
  <path class="st40" d="M1115.67,1968.09c2.32-8.47,4.28-14.04,12.35-18.49,4.08-2.25,7.52-2.78,12.08-3.23,4.83,1.97,7.8,3.2,9.87,8.44,1.82,4.61,2.1,9.67-.68,13.94-2.71,4.17-6.95,4.96-11.4,5.8-5.26-1.79-5.56-1.83-8.75-6.4l.08-3.9c5.32-.38,12.88,3.13,16.32-.47-1.7-4.97-2.51-7.18-6.8-10.25-4.99.43-8.51,1.71-11.98,5.7-2.21,2.54-3.32,6.65-4.42,9.76l-6.67-.9Z"/>
  <path class="st18" d="M567.07,2194.88c2.85-5.75,6.13-8.95,12.14-10.96,7.38-2.52,15.47-1.75,22.26,2.12,2.47,1.39,3.76,3.15,5.23,5.52-1.86,4.55-.36,3.32-4.55,5.01-9.16,3.71-19.46-1.11-29.28,1.27l-5.81-2.96Z"/>
  <path class="st18" d="M737.54,2023.7c3.12,1.46,5.58,3.05,9.05,3.19,5.63,2.54,7.57,2.91,11.19,8.14-1.76,4.7-2,5.35-6.62,7.7-1.3.66-3.12,1.29-4.52,1.81l-9.56.73c-1.68-.27-4.13-.6-5.69-1.14-4.45-1.56-5.16-2.06-6.96-6.39,2.43-6.62,7.79-9.88,13.1-14.04Z"/>
  <path class="st10" d="M669.09,2352.48c-4.04-5.15-8.4-10.51-8.06-17.53.25-5.36,2.16-8.39,5.61-12.17,5.61-1.57,5.16-1.57,10.25,1.32,3.68,5.99,3.66,11.05,4,17.86-3.63,3.88-6.98,8.17-11.8,10.52Z"/>
  <path class="st13" d="M781.52,2004.91c-1.64-12.56-.12-18.59,6.65-28.99,4.16-2.43,3.95-2.28,8.65-1.19,4.34,3.9,5.11,4.14,6.37,9.79-3.82,9.15-13.42,12.4-16.09,21.8l-4.22,1.24-1.36-2.65Z"/>
  <path class="st7" d="M871.45,2341.81c-1.74-19.24-19.94-16.53-26.45-32.55l1.64-3.13c2.77-1.23,4.24-2.65,7.34-1.83,9.39,2.5,15.15,13.45,20.26,21.13-.56,5.75-.79,10.91-2.78,16.38Z"/>
  <path class="st4" d="M617.05,2293.88c4.25.33,8.75.64,12.87,1.76,6.09,1.64,12.04,6.8,14.72,12.57,3.21,6.92,3.27,15.67.79,22.77l-2.74.08-.24-3.65c-1.06-6.45-2.23-13.6-7.14-18.35-5.9-5.72-15.88-6.3-23.53-6.81l-2.44-.14.31-3.19,7.4-5.04Z"/>
  <path class="st39" d="M925.43,1804.45c4.91,1.78,7.03,3.75,9.79,8.32,5.89,9.76,2.41,24.48.16,34.75l-3.57-.43c-8.3-6.18-3.98-29.51-5.93-40.34-.14-.77-.3-1.54-.44-2.3Z"/>
  <path class="st10" d="M639.98,2384.88c5.32.93,11.14,3.05,15.7,6.07,4.09,2.71,4.99,4.76,5.69,9.46l-3.84,4.39c-4.37-.44-9.55-.56-13.73-1.98-5.53-1.88-8.04-4.08-10.87-9,1.8-5.05,2.83-5.56,7.05-8.94Z"/>
  <path class="st10" d="M869.73,2295.69c-6.77-1.52-12.85-2.19-17.96-7.38-2.18-5.41-2.34-5.75-1.02-11.42,4.84-2.77,5.06-2.47,10.61-1.6,6.97,4.15,9.77,10.98,13.48,17.94l-5.11,2.46Z"/>
  <path class="st18" d="M1019.48,2293.58l8.1,4.17.24,2.8c3.75,3.85,5.11,2.81,9.51,5.01l-3.93,12.4c-4.58,3.61-3.53,9.9-6.33,15.16l-7.87-10.31c1.67-.97,3.34-2.56,4.86-3.78l-1.37-3.7-6.61-10.73,3.4-11.02Z"/>
  <path class="st16" d="M757.81,1878.37c.83,10.58-1.47,29.75,2.67,38.78l3.73-.14-2.77,16.41-2.67-.43c-2.87,9.6-.55,19.01-1.15,28.8-7.13-12.66-3.24-67.85.19-83.42Z"/>
  <path class="st5" d="M321.86,2351.37c1.78-.02,4.66-.12,6.35.17,4.93.83,5.86,2.11,8.62,5.9.25,9.7-7.75,19.72-12.63,27.69l-1.27.4c-4.94-6.26,1.81-17.74-2.12-26.27-1.48-3.22-.04-4.62,1.04-7.89Z"/>
  <path class="st46" d="M998.52,1920.86l2.88-1.25c.24-7.62.99-14.92-1.71-22.2-3.18-.24-5.18-.55-8.15-1.41-2.8-3.7-4.41-5.67-4.78-10.4l2.83-2.19c6.98-.33,7.79.11,13.91,3.65-.01,17.28.96,33.68,3.29,50.79l-4.01,1.32-4.26-18.31Z"/>
  <path class="st19" d="M1050.79,2266.24c2.85,1.27,4.51,1.4,7.56,2.2.31.08.52.37.78.55-8.03,11.57-16.93,23.18-21.8,36.57-4.4-2.2-5.76-1.16-9.51-5.01h2.31c7.15-11.27,14.98-22.18,20.66-34.31Z"/>
  <path class="st23" d="M1102.66,2055.57c1.19.05,2.38.06,3.57.16,7.01.56,14.37,3.94,18.82,9.63,5.54,7.08,5.34,13.38,3.97,21.92l-4.48-.42c-3.22-7.58-6.95-14.36-12.62-20.36-3.33-3.51-6.3-7.11-9.26-10.93Z"/>
  <path class="st38" d="M470.3,1950.83c9.28-.47,17.76-.6,25.98,4.39l-1.2,2.84-7.54,2.17c-7.67,1.24-20.36,4.89-27.23,1.01,1.57-5.17,5.88-7.42,10-10.41Z"/>
  <path class="st32" d="M1035.04,2172.51c-2.14-1.89-4.33-3.76-6.35-5.78-3.44-3.42-5.94-4.88-5.96-10.06l3.18-.93,9.62,7.26c2.25-3.43-.93-13.07.53-18.36l.17,5.18,3.38-.19c2.63,4.59,4.31,10.88,6.18,15.9l-10.75,6.98Z"/>
  <path class="st18" d="M543.97,1971.91c5.17,1.88,7.17,2.77,9.63,7.52-.04,8.29-5.39,16.17-9.11,23.36-2.62,2.06-1.08,1.55-4.73,1.08-2.09-11.06-.11-21.72,4.22-31.96Z"/>
  <path class="st43" d="M859.77,1783.84c-1.51-9.67-5.61-25.11-.03-33.85.33-.52.79-.93,1.19-1.4,3.54,2.27,3.69,3.83,4.67,7.85,1.95,7.96.29,18.46.35,26.82l-6.18.58Z"/>
  <path class="st11" d="M931.16,2325.04c6.85-.06,9.1-.59,15.16,2.98,2.69,4.18,4.85,7.91,3.91,13.16-.99,5.53-2.89,6.93-7,10-5.5.05-6.38.13-11.03-2.75l-.69-3.75,2-2.57,6.8,3.28c3.31-3.88,3.09-4.77,3.65-9.96l-2.79-1.69-4.19,3.55c.04-.59.14-1.19.11-1.78-.21-5.83-1.97-6.45-5.95-10.47Z"/>
  <path class="st18" d="M450.15,1976.46c4.8-2.34,10.56-.25,12.82,4.65,2.26,4.9.15,10.73-4.69,12.98-4.78,2.22-10.43.11-12.66-4.73s-.2-10.59,4.54-12.9Z"/>
  <path class="st35" d="M374.3,1926.91l1.38,1.51c-2.47,7.23-11.6,9.57-15.35,16.61-2.79,5.25.13,11.66-3.24,18.4-1.32-1.25-3.94-3.63-4.89-5.1-2.27-3.53-2.09-8.89-.49-12.66,4.08-9.61,13.35-15.27,22.58-18.76Z"/>
  <path class="st29" d="M1009.38,2034.75c8,2.71,21.76,22.71,27.04,30.82-5.5.25-8.29,0-12.9-3.27-8.98-6.36-12.74-17-14.14-27.55Z"/>
  <path class="st38" d="M672.24,1907.86l5.9,3.35c6.94,9.85,5.87,17.47,4.74,29.2-1.66.05-3.5-.43-5.14-.7-5.67-9.71-5.28-20.86-5.5-31.85Z"/>
  <path class="st16" d="M568.7,1831.92c5.46.92,10.95,3.52,14.33,8.14,4.99,6.82,3.81,14.07,2.66,21.84l-3.77.82c-4.52-2.79-9.49-24.29-13.22-30.8Z"/>
  <path class="st22" d="M1115.67,1968.09l6.67.9c3.33,11.59,6.77,18.48,15.15,26.96l-.36,7.16c-.93-.61-1.87-1.2-2.8-1.83-12.46-8.44-16.01-18.78-18.66-33.19Z"/>
  <path class="st36" d="M799.13,1848.7c5.71.13,12.61-.26,18.07,1.33,4.04,1.17,4.2,1.38,6.16,5.26l-2.51,4.51c-4.4.24-9.04.69-13.43.35-5.09-.4-6.9-1.84-9.86-5.8l1.58-5.65Z"/>
  <path class="st18" d="M1084.33,2153.13c5.74.13,12.07-.26,17.57,1.56,2.88.96,2.71,2.2,3.96,4.73l-2.43,6.07c-5.47.03-11.01.42-16.3-1.23-3.22-1.01-3.16-2.37-4.74-5.11l1.94-6.02Z"/>
  <path class="st30" d="M1053.8,2172.76l9.41-.18,1.63,5.06,4.47,1.37-7.12,6.73c-5.61,5.4-9.77,7.5-17.18,9.96,4.04-5.18,9.94-11.1,12.12-17.3l-7.63-1.13,4.3-4.51Z"/>
  <path class="st21" d="M1001.63,2278.7c6.26,4.59,11.67,10.42,17.85,14.88l-3.4,11.02c-5.08-7.11-8.33-12.07-17.09-14.11,1.42-3.57,1.87-7.99,2.64-11.79Z"/>
  <path class="st10" d="M469.46,2234.35c3.39,1.26,5.95,2.25,8.49,5.02,5.15,5.63,5.04,11.85,4.94,18.96-4.6-1.59-8.48-3.38-11.32-7.65-3.46-5.21-2.69-10.52-2.11-16.33Z"/>
  <path class="st10" d="M919.83,2323.72l5.65-2.76c1.97,1.3,3.95,2.46,5.68,4.08,3.97,4.02,5.74,4.64,5.95,10.47.02.59-.08,1.19-.11,1.78l-3.58.81c-5.09-.12-7.2.47-11.72-2.32l-1.86-12.06Z"/>
  <path class="st14" d="M992.71,1953.44l5.2,1.99.42,3.16c-4.45,4.51-9.59,5.83-15.39,7.78-4-3.04-5.2-3.38-6.75-8.11,4.21-4.05,11-4,16.52-4.82Z"/>
  <path class="st33" d="M726.32,2185.63c2.05-.29,4.1-.62,6.16-.8,5.64-.5,10.39-.49,14.74,3.32l-1.74,3.93c-3.13.37-6.31.79-9.45.89-5.02.16-7.39.35-11.17-3.11l1.46-4.23Z"/>
  <path class="st25" d="M809.55,2046.47c.3,5.01.02,10.3,1.97,14.94-1.87,5.49-5.12,8.12-9.46,11.39l-1.14-1.25c.48-3.71.03-2.45,1.41-5.59,2.58-5.89,4.87-11.39,6.68-17.58l.54-1.91Z"/>
  <path class="st31" d="M1042.41,2316.33l3.4,5.21-5.2,9.24c-3.67.66-4.13.8-7.79-.62l.93-3.98c3.1-2.98,5.84-6.59,8.66-9.85Z"/>
  <g>
    <polygon points="3635.83 1647.59 3657.51 1647.59 3657.51 1708.28 3672.26 1708.28 3672.26 1647.59 3693.88 1647.59 3693.88 1635.23 3635.83 1635.23 3635.83 1647.59"/>
    <polygon points="3738.52 1685.06 3725.27 1635.23 3703.2 1635.23 3703.2 1708.28 3716.9 1708.28 3716.9 1650.78 3731.35 1708.28 3745.55 1708.28 3760.05 1650.78 3760.05 1708.28 3773.76 1708.28 3773.76 1635.23 3751.63 1635.23 3738.52 1685.06"/>
  </g>
</svg>